<svg width="360" height="505" viewBox="0 0 360 505" fill="none" xmlns="http://www.w3.org/2000/svg">
<g clip-path="url(#clip0_1_8)">
<rect width="360" height="505" fill="#001933"/>
<path d="M33.2665 86.3477H37.0502L42.113 100.603H42.2195L47.2823 86.3477H51.0927L44.1647 105H40.1678L33.2665 86.3477ZM52.4421 91.5171H55.8528V105H52.4421V91.5171ZM54.1474 89.5453C53.5434 89.5453 53.046 89.3588 52.6552 88.9857C52.2644 88.6127 52.069 88.1508 52.069 87.6001C52.069 87.2448 52.1578 86.9162 52.3355 86.6142C52.5131 86.3122 52.7618 86.0724 53.0816 85.8948C53.4013 85.7171 53.7566 85.6283 54.1474 85.6283C54.7336 85.6283 55.2221 85.8237 55.6129 86.2145C56.0215 86.5876 56.2258 87.0494 56.2258 87.6001C56.2258 88.1508 56.0304 88.6127 55.6396 88.9857C55.2488 89.3588 54.7514 89.5453 54.1474 89.5453ZM65.0625 91.5171H68.4732V105H65.0625V91.5171ZM66.7679 89.5453C66.1639 89.5453 65.6665 89.3588 65.2757 88.9857C64.8849 88.6127 64.6895 88.1508 64.6895 87.6001C64.6895 87.2448 64.7783 86.9162 64.9559 86.6142C65.1336 86.3122 65.3823 86.0724 65.702 85.8948C66.0218 85.7171 66.3771 85.6283 66.7679 85.6283C67.3541 85.6283 67.8426 85.8237 68.2334 86.2145C68.642 86.5876 68.8463 87.0494 68.8463 87.6001C68.8463 88.1508 68.6509 88.6127 68.2601 88.9857C67.8692 89.3588 67.3718 89.5453 66.7679 89.5453ZM80.0303 97.0861C80.0303 96.0558 79.826 95.2919 79.4175 94.7946C79.0089 94.2972 78.3872 94.0485 77.5522 94.0485C76.5575 94.0485 75.767 94.4037 75.1807 95.1143C74.6123 95.8071 74.3281 96.8641 74.3281 98.2852V105H70.9174V91.5171H74.0083V94.7146L73.6619 94.2883C74.035 93.2402 74.6212 92.4497 75.4206 91.9168C76.2199 91.3661 77.2058 91.0907 78.3783 91.0907C79.4264 91.0907 80.3323 91.3039 81.0962 91.7303C81.86 92.1566 82.4374 92.7783 82.8282 93.5955C83.2367 94.3949 83.441 95.3452 83.441 96.4466V105H80.0303V97.0861ZM84.0587 91.5171H87.6559L90.8268 101.536H90.9334L94.0776 91.5171H97.7015L93.145 105H88.5885L84.0587 91.5171ZM99.0207 91.5171H102.431V105H99.0207V91.5171ZM100.726 89.5453C100.122 89.5453 99.6246 89.3588 99.2338 88.9857C98.843 88.6127 98.6476 88.1508 98.6476 87.6001C98.6476 87.2448 98.7364 86.9162 98.9141 86.6142C99.0917 86.3122 99.3404 86.0724 99.6602 85.8948C99.9799 85.7171 100.335 85.6283 100.726 85.6283C101.312 85.6283 101.801 85.8237 102.192 86.2145C102.6 86.5876 102.804 87.0494 102.804 87.6001C102.804 88.1508 102.609 88.6127 102.218 88.9857C101.827 89.3588 101.33 89.5453 100.726 89.5453ZM111.377 105C109.796 105 108.57 104.591 107.7 103.774C106.847 102.939 106.421 101.776 106.421 100.284V94.3949H103.97V91.5171H105.542C105.897 91.5171 106.163 91.4283 106.341 91.2506C106.536 91.0552 106.634 90.7888 106.634 90.4512V87.4136H109.752V91.5171H112.576V94.3949H109.832V101.323C109.832 101.607 109.894 101.811 110.018 101.936C110.16 102.06 110.373 102.122 110.658 102.122H112.923V105H111.377ZM120.636 105.426C119.25 105.426 118.033 105.133 116.985 104.547C115.937 103.943 115.129 103.108 114.561 102.042C113.992 100.959 113.708 99.6974 113.708 98.2585C113.708 96.8374 113.992 95.5851 114.561 94.5014C115.129 93.4178 115.928 92.5829 116.959 91.9967C118.007 91.3927 119.232 91.0907 120.636 91.0907C122.146 91.0907 123.425 91.4371 124.473 92.1299C125.521 92.8227 126.267 93.782 126.711 95.0077C127.173 96.2157 127.288 97.6013 127.058 99.1645H116.133L117.119 98.152C117.03 99.5731 117.296 100.683 117.918 101.483C118.557 102.282 119.463 102.682 120.636 102.682C121.435 102.682 122.092 102.513 122.608 102.176C123.123 101.82 123.451 101.403 123.594 100.923H126.978C126.8 101.794 126.427 102.575 125.858 103.268C125.29 103.943 124.562 104.476 123.673 104.867C122.785 105.24 121.773 105.426 120.636 105.426ZM116.213 96.8463H124.713L123.647 97.8056C123.807 97.0239 123.78 96.3311 123.567 95.7272C123.371 95.1054 123.007 94.6258 122.474 94.2883C121.959 93.933 121.32 93.7554 120.556 93.7554C119.845 93.7554 119.232 93.9152 118.717 94.235C118.202 94.5547 117.802 95.0255 117.518 95.6472C117.252 96.269 117.119 97.0239 117.119 97.9121L116.213 96.8463ZM128.944 94.9278C128.944 93.8264 129.237 92.9826 129.823 92.3964C130.427 91.8102 131.297 91.5171 132.434 91.5171H136.804V94.3949H132.354V105H128.944V94.9278ZM144.133 105.426C142.748 105.426 141.531 105.133 140.483 104.547C139.435 103.943 138.626 103.108 138.058 102.042C137.49 100.959 137.205 99.6974 137.205 98.2585C137.205 96.8374 137.49 95.5851 138.058 94.5014C138.626 93.4178 139.426 92.5829 140.456 91.9967C141.504 91.3927 142.73 91.0907 144.133 91.0907C145.643 91.0907 146.922 91.4371 147.97 92.1299C149.018 92.8227 149.765 93.782 150.209 95.0077C150.67 96.2157 150.786 97.6013 150.555 99.1645H139.63L140.616 98.152C140.527 99.5731 140.794 100.683 141.415 101.483C142.055 102.282 142.961 102.682 144.133 102.682C144.933 102.682 145.59 102.513 146.105 102.176C146.62 101.82 146.949 101.403 147.091 100.923H150.475C150.297 101.794 149.924 102.575 149.356 103.268C148.787 103.943 148.059 104.476 147.171 104.867C146.283 105.24 145.27 105.426 144.133 105.426ZM139.71 96.8463H148.21L147.144 97.8056C147.304 97.0239 147.278 96.3311 147.064 95.7272C146.869 95.1054 146.505 94.6258 145.972 94.2883C145.457 93.933 144.817 93.7554 144.053 93.7554C143.343 93.7554 142.73 93.9152 142.215 94.235C141.7 94.5547 141.3 95.0255 141.016 95.6472C140.749 96.269 140.616 97.0239 140.616 97.9121L139.71 96.8463ZM152.441 94.9278C152.441 93.8264 152.734 92.9826 153.32 92.3964C153.924 91.8102 154.795 91.5171 155.932 91.5171H160.302V94.3949H155.852V105H152.441V94.9278ZM174.038 105.426C172.848 105.426 171.791 105.133 170.867 104.547C169.944 103.961 169.224 103.126 168.709 102.042C168.212 100.959 167.963 99.6974 167.963 98.2585C167.963 96.8019 168.212 95.5406 168.709 94.4748C169.224 93.3912 169.944 92.5563 170.867 91.9701C171.791 91.3839 172.848 91.0907 174.038 91.0907C175.104 91.0907 176.045 91.3306 176.863 91.8102C177.68 92.2721 178.328 92.9471 178.808 93.8353L178.381 94.3682V86.3477H181.765V105H178.675V101.776L179.074 102.255C178.612 103.268 177.946 104.05 177.076 104.6C176.205 105.151 175.193 105.426 174.038 105.426ZM174.917 102.522C175.61 102.522 176.223 102.353 176.756 102.016C177.289 101.66 177.706 101.163 178.008 100.523C178.31 99.8662 178.461 99.1112 178.461 98.2585C178.461 97.4059 178.31 96.6598 178.008 96.0203C177.706 95.363 177.289 94.8567 176.756 94.5014C176.223 94.1462 175.61 93.9685 174.917 93.9685C174.225 93.9685 173.612 94.1462 173.079 94.5014C172.564 94.8567 172.164 95.363 171.88 96.0203C171.596 96.6598 171.453 97.4059 171.453 98.2585C171.453 99.5553 171.764 100.595 172.386 101.376C173.008 102.14 173.852 102.522 174.917 102.522ZM190.504 105.426C189.118 105.426 187.901 105.133 186.853 104.547C185.805 103.943 184.997 103.108 184.428 102.042C183.86 100.959 183.576 99.6974 183.576 98.2585C183.576 96.8374 183.86 95.5851 184.428 94.5014C184.997 93.4178 185.796 92.5829 186.827 91.9967C187.875 91.3927 189.1 91.0907 190.504 91.0907C192.014 91.0907 193.293 91.4371 194.341 92.1299C195.389 92.8227 196.135 93.782 196.579 95.0077C197.041 96.2157 197.156 97.6013 196.925 99.1645H186.001L186.986 98.152C186.898 99.5731 187.164 100.683 187.786 101.483C188.425 102.282 189.331 102.682 190.504 102.682C191.303 102.682 191.96 102.513 192.476 102.176C192.991 101.82 193.319 101.403 193.461 100.923H196.846C196.668 101.794 196.295 102.575 195.726 103.268C195.158 103.943 194.43 104.476 193.541 104.867C192.653 105.24 191.641 105.426 190.504 105.426ZM186.08 96.8463H194.581L193.515 97.8056C193.675 97.0239 193.648 96.3311 193.435 95.7272C193.239 95.1054 192.875 94.6258 192.342 94.2883C191.827 93.933 191.188 93.7554 190.424 93.7554C189.713 93.7554 189.1 93.9152 188.585 94.235C188.07 94.5547 187.67 95.0255 187.386 95.6472C187.12 96.269 186.986 97.0239 186.986 97.9121L186.08 96.8463ZM205.125 110.329C203.81 110.329 202.682 110.098 201.741 109.636C200.799 109.175 200.071 108.553 199.556 107.771C199.058 107.007 198.756 106.128 198.65 105.133H201.954C202.096 105.915 202.433 106.528 202.966 106.972C203.499 107.416 204.219 107.638 205.125 107.638C206.173 107.638 206.99 107.345 207.576 106.759C208.18 106.172 208.482 105.355 208.482 104.307V101.19L208.749 99.6441V91.5437H211.653V103.348C211.653 105.533 211.102 107.238 210.001 108.464C208.9 109.707 207.274 110.329 205.125 110.329ZM204.245 104.414C203.073 104.414 202.043 104.147 201.154 103.614C200.266 103.064 199.573 102.291 199.076 101.296C198.579 100.284 198.33 99.1023 198.33 97.7523C198.33 96.42 198.579 95.2564 199.076 94.2616C199.573 93.2491 200.266 92.4763 201.154 91.9434C202.043 91.3927 203.073 91.1174 204.245 91.1174C205.4 91.1174 206.404 91.3839 207.256 91.9168C208.109 92.4497 208.766 93.2224 209.228 94.235C209.69 95.2298 209.921 96.4111 209.921 97.7789C209.921 99.1467 209.69 100.328 209.228 101.323C208.766 102.318 208.109 103.081 207.256 103.614C206.404 104.147 205.4 104.414 204.245 104.414ZM205.018 101.723C205.711 101.723 206.324 101.563 206.857 101.243C207.39 100.905 207.798 100.435 208.082 99.8307C208.384 99.2267 208.535 98.5339 208.535 97.7523C208.535 96.9884 208.384 96.3134 208.082 95.7272C207.798 95.1232 207.39 94.6613 206.857 94.3416C206.324 94.0041 205.711 93.8353 205.018 93.8353C204.325 93.8353 203.721 94.0041 203.206 94.3416C202.691 94.6613 202.291 95.1143 202.007 95.7005C201.723 96.2867 201.581 96.9795 201.581 97.7789C201.581 98.9513 201.892 99.9017 202.513 100.63C203.135 101.358 203.97 101.723 205.018 101.723ZM227.381 105C225.8 105 224.575 104.591 223.704 103.774C222.851 102.939 222.425 101.776 222.425 100.284V94.3949H219.974V91.5171H221.546C221.901 91.5171 222.168 91.4283 222.345 91.2506C222.541 91.0552 222.638 90.7888 222.638 90.4512V87.4136H225.756V91.5171H228.58V94.3949H225.836V101.323C225.836 101.607 225.898 101.811 226.022 101.936C226.164 102.06 226.378 102.122 226.662 102.122H228.927V105H227.381ZM230.534 91.5171H233.944V105H230.534V91.5171ZM232.239 89.5453C231.635 89.5453 231.138 89.3588 230.747 88.9857C230.356 88.6127 230.161 88.1508 230.161 87.6001C230.161 87.2448 230.249 86.9162 230.427 86.6142C230.605 86.3122 230.853 86.0724 231.173 85.8948C231.493 85.7171 231.848 85.6283 232.239 85.6283C232.825 85.6283 233.314 85.8237 233.705 86.2145C234.113 86.5876 234.317 87.0494 234.317 87.6001C234.317 88.1508 234.122 88.6127 233.731 88.9857C233.34 89.3588 232.843 89.5453 232.239 89.5453ZM239.983 105C238.846 105 237.976 104.707 237.372 104.121C236.786 103.534 236.493 102.691 236.493 101.589V86.3477H239.903V102.122H241.342V105H239.983Z" fill="#CDE5FF"/>
<path d="M33 346.397C33 344.521 34.521 343 36.3972 343H305.986C307.862 343 309.383 344.521 309.383 346.397V373.986C309.383 375.862 307.862 377.383 305.986 377.383H36.3972C34.521 377.383 33 375.862 33 373.986V346.397Z" fill="#003563"/>
<path d="M50.4116 361.052C50.2916 360.838 50.1449 360.725 49.9716 360.712C49.7983 360.685 49.6383 360.758 49.4916 360.932L46.8516 363.912V367.192H44.1516V353.192H46.8516V360.272L52.8316 353.192H56.0916L52.3316 357.532C52.1449 357.745 52.0449 357.945 52.0316 358.132C52.0183 358.318 52.0716 358.525 52.1916 358.752L56.7916 367.192H53.6916L50.4116 361.052ZM61.8232 367.512C60.7565 367.512 59.8232 367.292 59.0232 366.852C58.2232 366.398 57.6032 365.772 57.1632 364.972C56.7365 364.158 56.5232 363.212 56.5232 362.132C56.5232 361.065 56.7365 360.125 57.1632 359.312C57.6032 358.498 58.2232 357.872 59.0232 357.432C59.8232 356.978 60.7498 356.752 61.8032 356.752C62.8698 356.752 63.7965 356.978 64.5832 357.432C65.3832 357.872 65.9965 358.498 66.4232 359.312C66.8632 360.112 67.0832 361.052 67.0832 362.132C67.0832 363.198 66.8632 364.138 66.4232 364.952C65.9965 365.765 65.3832 366.398 64.5832 366.852C63.7965 367.292 62.8765 367.512 61.8232 367.512ZM61.8232 365.332C62.3432 365.332 62.8032 365.205 63.2032 364.952C63.6165 364.685 63.9298 364.312 64.1432 363.832C64.3698 363.338 64.4832 362.772 64.4832 362.132C64.4832 361.158 64.2365 360.378 63.7432 359.792C63.2632 359.205 62.6232 358.912 61.8232 358.912C61.2765 358.912 60.8032 359.045 60.4032 359.312C60.0032 359.578 59.6898 359.958 59.4632 360.452C59.2498 360.932 59.1432 361.492 59.1432 362.132C59.1432 363.105 59.3832 363.885 59.8632 364.472C60.3565 365.045 61.0098 365.332 61.8232 365.332ZM75.2494 361.252C75.2494 360.478 75.0961 359.905 74.7894 359.532C74.4827 359.158 74.0161 358.972 73.3894 358.972C72.6427 358.972 72.0494 359.238 71.6094 359.772C71.1827 360.292 70.9694 361.085 70.9694 362.152V367.192H68.4094V357.072H70.7294V359.472L70.4694 359.152C70.7494 358.365 71.1894 357.772 71.7894 357.372C72.3894 356.958 73.1294 356.752 74.0094 356.752C74.7961 356.752 75.4761 356.912 76.0494 357.232C76.6227 357.552 77.0561 358.018 77.3494 358.632C77.6561 359.232 77.8094 359.945 77.8094 360.772V367.192H75.2494V361.252ZM84.0841 371.192C83.0974 371.192 82.2508 371.018 81.5441 370.672C80.8374 370.325 80.2908 369.858 79.9041 369.272C79.5308 368.698 79.3041 368.038 79.2241 367.292H81.7041C81.8108 367.878 82.0641 368.338 82.4641 368.672C82.8641 369.005 83.4041 369.172 84.0841 369.172C84.8708 369.172 85.4841 368.952 85.9241 368.512C86.3774 368.072 86.6041 367.458 86.6041 366.672V364.332L86.8041 363.172V357.092H88.9841V365.952C88.9841 367.592 88.5708 368.872 87.7441 369.792C86.9174 370.725 85.6974 371.192 84.0841 371.192ZM83.4241 366.752C82.5441 366.752 81.7708 366.552 81.1041 366.152C80.4374 365.738 79.9174 365.158 79.5441 364.412C79.1708 363.652 78.9841 362.765 78.9841 361.752C78.9841 360.752 79.1708 359.878 79.5441 359.132C79.9174 358.372 80.4374 357.792 81.1041 357.392C81.7708 356.978 82.5441 356.772 83.4241 356.772C84.2908 356.772 85.0441 356.972 85.6841 357.372C86.3241 357.772 86.8174 358.352 87.1641 359.112C87.5108 359.858 87.6841 360.745 87.6841 361.772C87.6841 362.798 87.5108 363.685 87.1641 364.432C86.8174 365.178 86.3241 365.752 85.6841 366.152C85.0441 366.552 84.2908 366.752 83.4241 366.752ZM84.0041 364.732C84.5241 364.732 84.9841 364.612 85.3841 364.372C85.7841 364.118 86.0908 363.765 86.3041 363.312C86.5308 362.858 86.6441 362.338 86.6441 361.752C86.6441 361.178 86.5308 360.672 86.3041 360.232C86.0908 359.778 85.7841 359.432 85.3841 359.192C84.9841 358.938 84.5241 358.812 84.0041 358.812C83.4841 358.812 83.0308 358.938 82.6441 359.192C82.2574 359.432 81.9574 359.772 81.7441 360.212C81.5308 360.652 81.4241 361.172 81.4241 361.772C81.4241 362.652 81.6574 363.365 82.1241 363.912C82.5908 364.458 83.2174 364.732 84.0041 364.732ZM95.5122 367.512C94.4722 367.512 93.5589 367.292 92.7722 366.852C91.9855 366.398 91.3789 365.772 90.9522 364.972C90.5255 364.158 90.3122 363.212 90.3122 362.132C90.3122 361.065 90.5255 360.125 90.9522 359.312C91.3789 358.498 91.9789 357.872 92.7522 357.432C93.5389 356.978 94.4589 356.752 95.5122 356.752C96.6455 356.752 97.6055 357.012 98.3922 357.532C99.1789 358.052 99.7389 358.772 100.072 359.692C100.419 360.598 100.506 361.638 100.332 362.812H92.1322L92.8722 362.052C92.8055 363.118 93.0055 363.952 93.4722 364.552C93.9522 365.152 94.6322 365.452 95.5122 365.452C96.1122 365.452 96.6055 365.325 96.9922 365.072C97.3789 364.805 97.6255 364.492 97.7322 364.132H100.272C100.139 364.785 99.8589 365.372 99.4322 365.892C99.0055 366.398 98.4589 366.798 97.7922 367.092C97.1255 367.372 96.3655 367.512 95.5122 367.512ZM92.1922 361.072H98.5722L97.7722 361.792C97.8922 361.205 97.8722 360.685 97.7122 360.232C97.5655 359.765 97.2922 359.405 96.8922 359.152C96.5055 358.885 96.0255 358.752 95.4522 358.752C94.9189 358.752 94.4589 358.872 94.0722 359.112C93.6855 359.352 93.3855 359.705 93.1722 360.172C92.9722 360.638 92.8722 361.205 92.8722 361.872L92.1922 361.072ZM108.628 361.252C108.628 360.478 108.475 359.905 108.168 359.532C107.862 359.158 107.395 358.972 106.768 358.972C106.022 358.972 105.428 359.238 104.988 359.772C104.562 360.292 104.348 361.085 104.348 362.152V367.192H101.788V357.072H104.108V359.472L103.848 359.152C104.128 358.365 104.568 357.772 105.168 357.372C105.768 356.958 106.508 356.752 107.388 356.752C108.175 356.752 108.855 356.912 109.428 357.232C110.002 357.552 110.435 358.018 110.728 358.632C111.035 359.232 111.188 359.945 111.188 360.772V367.192H108.628V361.252ZM118.383 361.292C119.41 361.478 120.183 361.825 120.703 362.332C121.236 362.825 121.503 363.478 121.503 364.292C121.503 365.278 121.11 366.058 120.323 366.632C119.55 367.205 118.49 367.492 117.143 367.492C116.17 367.492 115.33 367.345 114.623 367.052C113.916 366.745 113.37 366.318 112.983 365.772C112.596 365.212 112.396 364.552 112.383 363.792H114.763C114.83 364.338 115.056 364.765 115.443 365.072C115.843 365.365 116.39 365.512 117.083 365.512C117.67 365.512 118.123 365.412 118.443 365.212C118.776 364.998 118.943 364.692 118.943 364.292C118.943 363.985 118.83 363.745 118.603 363.572C118.376 363.385 118.01 363.245 117.503 363.152L115.943 362.892C114.85 362.692 114.023 362.345 113.463 361.852C112.903 361.358 112.623 360.718 112.623 359.932C112.623 359.292 112.783 358.738 113.103 358.272C113.436 357.792 113.91 357.425 114.523 357.172C115.15 356.905 115.89 356.772 116.743 356.772C118.05 356.772 119.096 357.078 119.883 357.692C120.683 358.305 121.116 359.158 121.183 360.252H118.743C118.69 359.772 118.49 359.392 118.143 359.112C117.796 358.832 117.323 358.692 116.723 358.692C116.19 358.692 115.783 358.798 115.503 359.012C115.223 359.212 115.083 359.485 115.083 359.832C115.083 360.125 115.203 360.358 115.443 360.532C115.696 360.705 116.11 360.852 116.683 360.972L118.383 361.292ZM132.58 371.192C131.594 371.192 130.747 371.018 130.04 370.672C129.334 370.325 128.787 369.858 128.4 369.272C128.027 368.698 127.8 368.038 127.72 367.292H130.2C130.307 367.878 130.56 368.338 130.96 368.672C131.36 369.005 131.9 369.172 132.58 369.172C133.367 369.172 133.98 368.952 134.42 368.512C134.874 368.072 135.1 367.458 135.1 366.672V364.332L135.3 363.172V357.092H137.48V365.952C137.48 367.592 137.067 368.872 136.24 369.792C135.414 370.725 134.194 371.192 132.58 371.192ZM131.92 366.752C131.04 366.752 130.267 366.552 129.6 366.152C128.934 365.738 128.414 365.158 128.04 364.412C127.667 363.652 127.48 362.765 127.48 361.752C127.48 360.752 127.667 359.878 128.04 359.132C128.414 358.372 128.934 357.792 129.6 357.392C130.267 356.978 131.04 356.772 131.92 356.772C132.787 356.772 133.54 356.972 134.18 357.372C134.82 357.772 135.314 358.352 135.66 359.112C136.007 359.858 136.18 360.745 136.18 361.772C136.18 362.798 136.007 363.685 135.66 364.432C135.314 365.178 134.82 365.752 134.18 366.152C133.54 366.552 132.787 366.752 131.92 366.752ZM132.5 364.732C133.02 364.732 133.48 364.612 133.88 364.372C134.28 364.118 134.587 363.765 134.8 363.312C135.027 362.858 135.14 362.338 135.14 361.752C135.14 361.178 135.027 360.672 134.8 360.232C134.587 359.778 134.28 359.432 133.88 359.192C133.48 358.938 133.02 358.812 132.5 358.812C131.98 358.812 131.527 358.938 131.14 359.192C130.754 359.432 130.454 359.772 130.24 360.212C130.027 360.652 129.92 361.172 129.92 361.772C129.92 362.652 130.154 363.365 130.62 363.912C131.087 364.458 131.714 364.732 132.5 364.732ZM142.428 367.512C141.335 367.512 140.468 367.218 139.828 366.632C139.188 366.045 138.868 365.285 138.868 364.352C138.868 363.458 139.168 362.745 139.768 362.212C140.382 361.665 141.262 361.345 142.408 361.252L144.768 361.092C145.022 361.065 145.208 360.992 145.328 360.872C145.462 360.738 145.528 360.538 145.528 360.272C145.528 359.778 145.355 359.412 145.008 359.172C144.675 358.918 144.215 358.792 143.628 358.792C143.002 358.792 142.515 358.932 142.168 359.212C141.835 359.478 141.628 359.852 141.548 360.332H139.088C139.208 359.185 139.655 358.305 140.428 357.692C141.202 357.065 142.268 356.752 143.628 356.752C145.055 356.752 146.148 357.092 146.908 357.772C147.668 358.452 148.048 359.465 148.048 360.812V365.032H148.868V367.192H147.848C147.208 367.192 146.722 367.018 146.388 366.672C146.068 366.312 145.908 365.792 145.908 365.112V364.132L146.248 364.272C146.075 365.352 145.642 366.165 144.948 366.712C144.268 367.245 143.428 367.512 142.428 367.512ZM142.948 365.472C143.442 365.472 143.882 365.372 144.268 365.172C144.668 364.958 144.982 364.672 145.208 364.312C145.435 363.938 145.548 363.525 145.548 363.072V362.672L142.948 362.872C142.428 362.912 142.042 363.052 141.788 363.292C141.548 363.518 141.428 363.825 141.428 364.212C141.428 364.612 141.562 364.925 141.828 365.152C142.095 365.365 142.468 365.472 142.948 365.472ZM154.442 367.192C153.255 367.192 152.335 366.885 151.682 366.272C151.042 365.645 150.722 364.772 150.722 363.652V359.232H148.882V357.072H150.062C150.328 357.072 150.528 357.005 150.662 356.872C150.808 356.725 150.882 356.525 150.882 356.272V353.992H153.222V357.072H155.342V359.232H153.282V364.432C153.282 364.645 153.328 364.798 153.422 364.892C153.528 364.985 153.688 365.032 153.902 365.032H155.602V367.192H154.442ZM161.391 367.512C160.351 367.512 159.438 367.292 158.651 366.852C157.864 366.398 157.258 365.772 156.831 364.972C156.404 364.158 156.191 363.212 156.191 362.132C156.191 361.065 156.404 360.125 156.831 359.312C157.258 358.498 157.858 357.872 158.631 357.432C159.418 356.978 160.338 356.752 161.391 356.752C162.524 356.752 163.484 357.012 164.271 357.532C165.058 358.052 165.618 358.772 165.951 359.692C166.298 360.598 166.384 361.638 166.211 362.812H158.011L158.751 362.052C158.684 363.118 158.884 363.952 159.351 364.552C159.831 365.152 160.511 365.452 161.391 365.452C161.991 365.452 162.484 365.325 162.871 365.072C163.258 364.805 163.504 364.492 163.611 364.132H166.151C166.018 364.785 165.738 365.372 165.311 365.892C164.884 366.398 164.338 366.798 163.671 367.092C163.004 367.372 162.244 367.512 161.391 367.512ZM158.071 361.072H164.451L163.651 361.792C163.771 361.205 163.751 360.685 163.591 360.232C163.444 359.765 163.171 359.405 162.771 359.152C162.384 358.885 161.904 358.752 161.331 358.752C160.798 358.752 160.338 358.872 159.951 359.112C159.564 359.352 159.264 359.705 159.051 360.172C158.851 360.638 158.751 361.205 158.751 361.872L158.071 361.072ZM177.265 358.952C177.745 358.952 178.152 358.872 178.485 358.712C178.832 358.538 179.092 358.298 179.265 357.992C179.439 357.685 179.525 357.338 179.525 356.952C179.525 356.352 179.325 355.885 178.925 355.552C178.539 355.218 178.025 355.052 177.385 355.052C176.665 355.052 176.112 355.272 175.725 355.712C175.339 356.138 175.145 356.778 175.145 357.632H172.585C172.585 356.632 172.785 355.778 173.185 355.072C173.599 354.365 174.172 353.825 174.905 353.452C175.652 353.078 176.519 352.892 177.505 352.892C178.439 352.892 179.252 353.052 179.945 353.372C180.652 353.692 181.192 354.132 181.565 354.692C181.939 355.238 182.125 355.865 182.125 356.572C182.125 357.238 181.952 357.845 181.605 358.392C181.272 358.938 180.752 359.378 180.045 359.712C179.339 360.032 178.465 360.192 177.425 360.192H176.225V358.952H177.265ZM176.225 359.132H177.425C178.545 359.132 179.492 359.298 180.265 359.632C181.052 359.965 181.645 360.438 182.045 361.052C182.459 361.665 182.665 362.385 182.665 363.212C182.665 364.052 182.445 364.798 182.005 365.452C181.579 366.092 180.979 366.592 180.205 366.952C179.432 367.312 178.552 367.492 177.565 367.492C176.539 367.492 175.625 367.305 174.825 366.932C174.039 366.545 173.419 365.985 172.965 365.252C172.525 364.518 172.305 363.638 172.305 362.612H174.865C174.865 363.505 175.105 364.185 175.585 364.652C176.065 365.105 176.705 365.332 177.505 365.332C177.999 365.332 178.432 365.245 178.805 365.072C179.192 364.898 179.485 364.652 179.685 364.332C179.899 363.998 180.005 363.612 180.005 363.172C180.005 362.478 179.765 361.945 179.285 361.572C178.819 361.185 178.145 360.992 177.265 360.992H176.225V359.132ZM189.249 367.492C188.289 367.492 187.403 367.265 186.589 366.812C185.776 366.358 185.109 365.598 184.589 364.532C184.069 363.452 183.809 362.038 183.809 360.292C183.809 358.745 184.023 357.418 184.449 356.312C184.889 355.192 185.509 354.345 186.309 353.772C187.123 353.185 188.109 352.892 189.269 352.892C190.136 352.892 190.896 353.058 191.549 353.392C192.216 353.725 192.749 354.185 193.149 354.772C193.563 355.358 193.816 356.038 193.909 356.812H191.389C191.296 356.278 191.056 355.852 190.669 355.532C190.296 355.212 189.803 355.052 189.189 355.052C188.269 355.052 187.563 355.438 187.069 356.212C186.576 356.985 186.296 358.152 186.229 359.712H186.309C186.603 359.178 187.023 358.772 187.569 358.492C188.129 358.212 188.789 358.072 189.549 358.072C190.429 358.072 191.216 358.265 191.909 358.652C192.603 359.025 193.143 359.565 193.529 360.272C193.916 360.965 194.109 361.772 194.109 362.692C194.109 363.625 193.903 364.458 193.489 365.192C193.089 365.912 192.516 366.478 191.769 366.892C191.036 367.292 190.196 367.492 189.249 367.492ZM189.129 365.332C189.596 365.332 190.009 365.225 190.369 365.012C190.743 364.798 191.029 364.498 191.229 364.112C191.429 363.712 191.529 363.252 191.529 362.732C191.529 361.945 191.296 361.312 190.829 360.832C190.376 360.352 189.783 360.112 189.049 360.112C188.569 360.112 188.143 360.218 187.769 360.432C187.409 360.645 187.129 360.938 186.929 361.312C186.743 361.685 186.649 362.125 186.649 362.632C186.649 363.165 186.756 363.638 186.969 364.052C187.183 364.452 187.476 364.765 187.849 364.992C188.236 365.218 188.663 365.332 189.129 365.332ZM196.07 367.932C196.137 367.772 196.157 367.632 196.13 367.512C196.117 367.392 196.043 367.292 195.91 367.212C195.71 367.092 195.55 366.925 195.43 366.712C195.31 366.498 195.25 366.258 195.25 365.992C195.25 365.578 195.39 365.232 195.67 364.952C195.963 364.672 196.337 364.532 196.79 364.532C197.257 364.532 197.637 364.685 197.93 364.992C198.223 365.298 198.37 365.698 198.37 366.192C198.37 366.392 198.337 366.618 198.27 366.872C198.203 367.112 198.097 367.405 197.95 367.752L196.67 370.752H194.81L196.07 367.932ZM208.943 356.372C208.943 356.105 208.87 355.905 208.723 355.772C208.59 355.638 208.39 355.572 208.123 355.572H204.563V353.192H216.023V355.572H212.463C212.197 355.572 211.99 355.638 211.843 355.772C211.71 355.905 211.643 356.105 211.643 356.372V367.192H208.943V356.372ZM215.127 359.632C215.127 358.805 215.347 358.172 215.787 357.732C216.24 357.292 216.893 357.072 217.747 357.072H221.027V359.232H217.687V367.192H215.127V359.632ZM226.628 367.512C225.561 367.512 224.628 367.292 223.828 366.852C223.028 366.398 222.408 365.772 221.968 364.972C221.541 364.158 221.328 363.212 221.328 362.132C221.328 361.065 221.541 360.125 221.968 359.312C222.408 358.498 223.028 357.872 223.828 357.432C224.628 356.978 225.555 356.752 226.608 356.752C227.675 356.752 228.601 356.978 229.388 357.432C230.188 357.872 230.801 358.498 231.228 359.312C231.668 360.112 231.888 361.052 231.888 362.132C231.888 363.198 231.668 364.138 231.228 364.952C230.801 365.765 230.188 366.398 229.388 366.852C228.601 367.292 227.681 367.512 226.628 367.512ZM226.628 365.332C227.148 365.332 227.608 365.205 228.008 364.952C228.421 364.685 228.735 364.312 228.948 363.832C229.175 363.338 229.288 362.772 229.288 362.132C229.288 361.158 229.041 360.378 228.548 359.792C228.068 359.205 227.428 358.912 226.628 358.912C226.081 358.912 225.608 359.045 225.208 359.312C224.808 359.578 224.495 359.958 224.268 360.452C224.055 360.932 223.948 361.492 223.948 362.132C223.948 363.105 224.188 363.885 224.668 364.472C225.161 365.045 225.815 365.332 226.628 365.332ZM240.054 361.252C240.054 360.478 239.901 359.905 239.594 359.532C239.287 359.158 238.821 358.972 238.194 358.972C237.447 358.972 236.854 359.238 236.414 359.772C235.987 360.292 235.774 361.085 235.774 362.152V367.192H233.214V357.072H235.534V359.472L235.274 359.152C235.554 358.365 235.994 357.772 236.594 357.372C237.194 356.958 237.934 356.752 238.814 356.752C239.601 356.752 240.281 356.912 240.854 357.232C241.427 357.552 241.861 358.018 242.154 358.632C242.461 359.232 242.614 359.945 242.614 360.772V367.192H240.054V361.252ZM248.329 367.512C247.436 367.512 246.643 367.292 245.949 366.852C245.256 366.412 244.716 365.785 244.329 364.972C243.956 364.158 243.769 363.212 243.769 362.132C243.769 361.038 243.956 360.092 244.329 359.292C244.716 358.478 245.256 357.852 245.949 357.412C246.643 356.972 247.436 356.752 248.329 356.752C249.129 356.752 249.836 356.932 250.449 357.292C251.063 357.638 251.549 358.145 251.909 358.812L251.589 359.212V353.192H254.129V367.192H251.809V364.772L252.109 365.132C251.763 365.892 251.263 366.478 250.609 366.892C249.956 367.305 249.196 367.512 248.329 367.512ZM248.989 365.332C249.509 365.332 249.969 365.205 250.369 364.952C250.769 364.685 251.083 364.312 251.309 363.832C251.536 363.338 251.649 362.772 251.649 362.132C251.649 361.492 251.536 360.932 251.309 360.452C251.083 359.958 250.769 359.578 250.369 359.312C249.969 359.045 249.509 358.912 248.989 358.912C248.469 358.912 248.009 359.045 247.609 359.312C247.223 359.578 246.923 359.958 246.709 360.452C246.496 360.932 246.389 361.492 246.389 362.132C246.389 363.105 246.623 363.885 247.089 364.472C247.556 365.045 248.189 365.332 248.989 365.332ZM262.906 361.252C262.906 360.478 262.752 359.905 262.446 359.532C262.139 359.158 261.672 358.972 261.046 358.972C260.299 358.972 259.706 359.238 259.266 359.772C258.839 360.292 258.626 361.085 258.626 362.152V367.192H256.066V353.192H258.626V359.232L258.346 358.892C258.626 358.172 259.039 357.638 259.586 357.292C260.146 356.932 260.839 356.752 261.666 356.752C262.452 356.752 263.126 356.912 263.686 357.232C264.259 357.552 264.692 358.018 264.986 358.632C265.292 359.232 265.446 359.945 265.446 360.772V367.192H262.906V361.252ZM271.801 367.512C270.761 367.512 269.848 367.292 269.061 366.852C268.275 366.398 267.668 365.772 267.241 364.972C266.815 364.158 266.601 363.212 266.601 362.132C266.601 361.065 266.815 360.125 267.241 359.312C267.668 358.498 268.268 357.872 269.041 357.432C269.828 356.978 270.748 356.752 271.801 356.752C272.935 356.752 273.895 357.012 274.681 357.532C275.468 358.052 276.028 358.772 276.361 359.692C276.708 360.598 276.795 361.638 276.621 362.812H268.421L269.161 362.052C269.095 363.118 269.295 363.952 269.761 364.552C270.241 365.152 270.921 365.452 271.801 365.452C272.401 365.452 272.895 365.325 273.281 365.072C273.668 364.805 273.915 364.492 274.021 364.132H276.561C276.428 364.785 276.148 365.372 275.721 365.892C275.295 366.398 274.748 366.798 274.081 367.092C273.415 367.372 272.655 367.512 271.801 367.512ZM268.481 361.072H274.861L274.061 361.792C274.181 361.205 274.161 360.685 274.001 360.232C273.855 359.765 273.581 359.405 273.181 359.152C272.795 358.885 272.315 358.752 271.741 358.752C271.208 358.752 270.748 358.872 270.361 359.112C269.975 359.352 269.675 359.705 269.461 360.172C269.261 360.638 269.161 361.205 269.161 361.872L268.481 361.072ZM278.097 357.072H280.657V367.192H278.097V357.072ZM279.377 355.592C278.924 355.592 278.55 355.452 278.257 355.172C277.964 354.892 277.817 354.545 277.817 354.132C277.817 353.865 277.884 353.618 278.017 353.392C278.15 353.165 278.337 352.985 278.577 352.852C278.817 352.718 279.084 352.652 279.377 352.652C279.817 352.652 280.184 352.798 280.477 353.092C280.784 353.372 280.937 353.718 280.937 354.132C280.937 354.545 280.79 354.892 280.497 355.172C280.204 355.452 279.83 355.592 279.377 355.592ZM282.491 357.072H284.811V359.452L284.551 359.152C284.831 358.365 285.251 357.772 285.811 357.372C286.385 356.958 287.071 356.752 287.871 356.752C288.738 356.752 289.458 356.978 290.031 357.432C290.618 357.885 291.011 358.518 291.211 359.332L290.791 359.352C291.018 358.512 291.425 357.872 292.011 357.432C292.611 356.978 293.338 356.752 294.191 356.752C294.911 356.752 295.538 356.912 296.071 357.232C296.605 357.552 297.011 358.012 297.291 358.612C297.571 359.198 297.711 359.898 297.711 360.712V367.192H295.151V361.132C295.151 360.412 295.018 359.872 294.751 359.512C294.485 359.152 294.085 358.972 293.551 358.972C292.925 358.972 292.405 359.225 291.991 359.732C291.591 360.238 291.391 361.005 291.391 362.032V367.192H288.831V361.132C288.831 360.412 288.698 359.872 288.431 359.512C288.165 359.152 287.765 358.972 287.231 358.972C286.578 358.972 286.051 359.232 285.651 359.752C285.251 360.272 285.051 361.032 285.051 362.032V367.192H282.491V357.072Z" fill="#EBF4FF"/>
<path d="M33 380.78C33 378.904 34.521 377.383 36.3972 377.383H331.986C333.862 377.383 335.383 378.904 335.383 380.78V408.369C335.383 410.245 333.862 411.766 331.986 411.766H36.3972C34.521 411.766 33 410.245 33 408.369V380.78Z" fill="#003563"/>
<path d="M44.1516 387.575H54.4116V389.955H46.8516V393.375H53.7116V395.755H46.8516V401.575H44.1516V387.575ZM54.99 394.015C54.99 393.188 55.21 392.555 55.65 392.115C56.1034 391.675 56.7567 391.455 57.61 391.455H60.89V393.615H57.55V401.575H54.99V394.015ZM66.3911 401.895C65.3511 401.895 64.4378 401.675 63.6511 401.235C62.8645 400.781 62.2578 400.155 61.8311 399.355C61.4045 398.541 61.1911 397.595 61.1911 396.515C61.1911 395.448 61.4045 394.508 61.8311 393.695C62.2578 392.881 62.8578 392.255 63.6311 391.815C64.4178 391.361 65.3378 391.135 66.3911 391.135C67.5245 391.135 68.4845 391.395 69.2711 391.915C70.0578 392.435 70.6178 393.155 70.9511 394.075C71.2978 394.981 71.3845 396.021 71.2111 397.195H63.0111L63.7511 396.435C63.6845 397.501 63.8845 398.335 64.3511 398.935C64.8311 399.535 65.5111 399.835 66.3911 399.835C66.9911 399.835 67.4845 399.708 67.8711 399.455C68.2578 399.188 68.5045 398.875 68.6111 398.515H71.1511C71.0178 399.168 70.7378 399.755 70.3111 400.275C69.8845 400.781 69.3378 401.181 68.6711 401.475C68.0045 401.755 67.2445 401.895 66.3911 401.895ZM63.0711 395.455H69.4511L68.6511 396.175C68.7711 395.588 68.7511 395.068 68.5911 394.615C68.4445 394.148 68.1711 393.788 67.7711 393.535C67.3845 393.268 66.9045 393.135 66.3311 393.135C65.7978 393.135 65.3378 393.255 64.9511 393.495C64.5645 393.735 64.2645 394.088 64.0511 394.555C63.8511 395.021 63.7511 395.588 63.7511 396.255L63.0711 395.455ZM76.8253 401.895C75.932 401.895 75.1387 401.675 74.4453 401.235C73.752 400.795 73.212 400.168 72.8253 399.355C72.452 398.541 72.2653 397.595 72.2653 396.515C72.2653 395.421 72.452 394.475 72.8253 393.675C73.212 392.861 73.752 392.235 74.4453 391.795C75.1387 391.355 75.932 391.135 76.8253 391.135C77.6253 391.135 78.332 391.315 78.9453 391.675C79.5587 392.021 80.0453 392.528 80.4053 393.195L80.0853 393.595V387.575H82.6253V401.575H80.3053V399.155L80.6053 399.515C80.2587 400.275 79.7587 400.861 79.1053 401.275C78.452 401.688 77.692 401.895 76.8253 401.895ZM77.4853 399.715C78.0053 399.715 78.4653 399.588 78.8653 399.335C79.2653 399.068 79.5787 398.695 79.8053 398.215C80.032 397.721 80.1453 397.155 80.1453 396.515C80.1453 395.875 80.032 395.315 79.8053 394.835C79.5787 394.341 79.2653 393.961 78.8653 393.695C78.4653 393.428 78.0053 393.295 77.4853 393.295C76.9653 393.295 76.5053 393.428 76.1053 393.695C75.7187 393.961 75.4187 394.341 75.2053 394.835C74.992 395.315 74.8853 395.875 74.8853 396.515C74.8853 397.488 75.1187 398.268 75.5853 398.855C76.052 399.428 76.6853 399.715 77.4853 399.715ZM87.5846 401.895C86.4912 401.895 85.6246 401.601 84.9846 401.015C84.3446 400.428 84.0246 399.668 84.0246 398.735C84.0246 397.841 84.3246 397.128 84.9246 396.595C85.5379 396.048 86.4179 395.728 87.5646 395.635L89.9246 395.475C90.1779 395.448 90.3646 395.375 90.4846 395.255C90.6179 395.121 90.6846 394.921 90.6846 394.655C90.6846 394.161 90.5112 393.795 90.1646 393.555C89.8312 393.301 89.3712 393.175 88.7846 393.175C88.1579 393.175 87.6712 393.315 87.3246 393.595C86.9912 393.861 86.7846 394.235 86.7046 394.715H84.2446C84.3646 393.568 84.8112 392.688 85.5846 392.075C86.3579 391.448 87.4246 391.135 88.7846 391.135C90.2112 391.135 91.3046 391.475 92.0646 392.155C92.8246 392.835 93.2046 393.848 93.2046 395.195V399.415H94.0246V401.575H93.0046C92.3646 401.575 91.8779 401.401 91.5446 401.055C91.2246 400.695 91.0646 400.175 91.0646 399.495V398.515L91.4046 398.655C91.2312 399.735 90.7979 400.548 90.1046 401.095C89.4246 401.628 88.5846 401.895 87.5846 401.895ZM88.1046 399.855C88.5979 399.855 89.0379 399.755 89.4246 399.555C89.8246 399.341 90.1379 399.055 90.3646 398.695C90.5912 398.321 90.7046 397.908 90.7046 397.455V397.055L88.1046 397.255C87.5846 397.295 87.1979 397.435 86.9446 397.675C86.7046 397.901 86.5846 398.208 86.5846 398.595C86.5846 398.995 86.7179 399.308 86.9846 399.535C87.2512 399.748 87.6246 399.855 88.1046 399.855ZM99.9435 405.575C98.9568 405.575 98.1101 405.401 97.4035 405.055C96.6968 404.708 96.1501 404.241 95.7635 403.655C95.3901 403.081 95.1635 402.421 95.0835 401.675H97.5635C97.6701 402.261 97.9235 402.721 98.3235 403.055C98.7235 403.388 99.2635 403.555 99.9435 403.555C100.73 403.555 101.343 403.335 101.783 402.895C102.237 402.455 102.463 401.841 102.463 401.055V398.715L102.663 397.555V391.475H104.843V400.335C104.843 401.975 104.43 403.255 103.603 404.175C102.777 405.108 101.557 405.575 99.9435 405.575ZM99.2835 401.135C98.4035 401.135 97.6301 400.935 96.9635 400.535C96.2968 400.121 95.7768 399.541 95.4035 398.795C95.0301 398.035 94.8435 397.148 94.8435 396.135C94.8435 395.135 95.0301 394.261 95.4035 393.515C95.7768 392.755 96.2968 392.175 96.9635 391.775C97.6301 391.361 98.4035 391.155 99.2835 391.155C100.15 391.155 100.903 391.355 101.543 391.755C102.183 392.155 102.677 392.735 103.023 393.495C103.37 394.241 103.543 395.128 103.543 396.155C103.543 397.181 103.37 398.068 103.023 398.815C102.677 399.561 102.183 400.135 101.543 400.535C100.903 400.935 100.15 401.135 99.2835 401.135ZM99.8635 399.115C100.383 399.115 100.843 398.995 101.243 398.755C101.643 398.501 101.95 398.148 102.163 397.695C102.39 397.241 102.503 396.721 102.503 396.135C102.503 395.561 102.39 395.055 102.163 394.615C101.95 394.161 101.643 393.815 101.243 393.575C100.843 393.321 100.383 393.195 99.8635 393.195C99.3435 393.195 98.8901 393.321 98.5035 393.575C98.1168 393.815 97.8168 394.155 97.6035 394.595C97.3901 395.035 97.2835 395.555 97.2835 396.155C97.2835 397.035 97.5168 397.748 97.9835 398.295C98.4501 398.841 99.0768 399.115 99.8635 399.115ZM116.769 401.875C115.809 401.875 114.922 401.648 114.109 401.195C113.295 400.741 112.629 399.981 112.109 398.915C111.589 397.835 111.329 396.421 111.329 394.675C111.329 393.128 111.542 391.801 111.969 390.695C112.409 389.575 113.029 388.728 113.829 388.155C114.642 387.568 115.629 387.275 116.789 387.275C117.655 387.275 118.415 387.441 119.069 387.775C119.735 388.108 120.269 388.568 120.669 389.155C121.082 389.741 121.335 390.421 121.429 391.195H118.909C118.815 390.661 118.575 390.235 118.189 389.915C117.815 389.595 117.322 389.435 116.709 389.435C115.789 389.435 115.082 389.821 114.589 390.595C114.095 391.368 113.815 392.535 113.749 394.095H113.829C114.122 393.561 114.542 393.155 115.089 392.875C115.649 392.595 116.309 392.455 117.069 392.455C117.949 392.455 118.735 392.648 119.429 393.035C120.122 393.408 120.662 393.948 121.049 394.655C121.435 395.348 121.629 396.155 121.629 397.075C121.629 398.008 121.422 398.841 121.009 399.575C120.609 400.295 120.035 400.861 119.289 401.275C118.555 401.675 117.715 401.875 116.769 401.875ZM116.649 399.715C117.115 399.715 117.529 399.608 117.889 399.395C118.262 399.181 118.549 398.881 118.749 398.495C118.949 398.095 119.049 397.635 119.049 397.115C119.049 396.328 118.815 395.695 118.349 395.215C117.895 394.735 117.302 394.495 116.569 394.495C116.089 394.495 115.662 394.601 115.289 394.815C114.929 395.028 114.649 395.321 114.449 395.695C114.262 396.068 114.169 396.508 114.169 397.015C114.169 397.548 114.275 398.021 114.489 398.435C114.702 398.835 114.995 399.148 115.369 399.375C115.755 399.601 116.182 399.715 116.649 399.715ZM124.248 401.875C123.795 401.875 123.415 401.735 123.108 401.455C122.815 401.175 122.668 400.828 122.668 400.415C122.668 400.135 122.735 399.881 122.868 399.655C123.015 399.428 123.208 399.248 123.448 399.115C123.688 398.981 123.955 398.915 124.248 398.915C124.701 398.915 125.075 399.061 125.368 399.355C125.661 399.635 125.808 399.988 125.808 400.415C125.808 400.695 125.741 400.948 125.608 401.175C125.475 401.388 125.288 401.555 125.048 401.675C124.821 401.808 124.555 401.875 124.248 401.875ZM132.784 391.455H135.104V393.835L134.844 393.535C135.124 392.748 135.544 392.155 136.104 391.755C136.678 391.341 137.364 391.135 138.164 391.135C139.031 391.135 139.751 391.361 140.324 391.815C140.911 392.268 141.304 392.901 141.504 393.715L141.084 393.735C141.311 392.895 141.718 392.255 142.304 391.815C142.904 391.361 143.631 391.135 144.484 391.135C145.204 391.135 145.831 391.295 146.364 391.615C146.898 391.935 147.304 392.395 147.584 392.995C147.864 393.581 148.004 394.281 148.004 395.095V401.575H145.444V395.515C145.444 394.795 145.311 394.255 145.044 393.895C144.778 393.535 144.378 393.355 143.844 393.355C143.218 393.355 142.698 393.608 142.284 394.115C141.884 394.621 141.684 395.388 141.684 396.415V401.575H139.124V395.515C139.124 394.795 138.991 394.255 138.724 393.895C138.458 393.535 138.058 393.355 137.524 393.355C136.871 393.355 136.344 393.615 135.944 394.135C135.544 394.655 135.344 395.415 135.344 396.415V401.575H132.784V391.455ZM152.819 401.895C151.726 401.895 150.859 401.601 150.219 401.015C149.579 400.428 149.259 399.668 149.259 398.735C149.259 397.841 149.559 397.128 150.159 396.595C150.772 396.048 151.652 395.728 152.799 395.635L155.159 395.475C155.412 395.448 155.599 395.375 155.719 395.255C155.852 395.121 155.919 394.921 155.919 394.655C155.919 394.161 155.746 393.795 155.399 393.555C155.066 393.301 154.606 393.175 154.019 393.175C153.392 393.175 152.906 393.315 152.559 393.595C152.226 393.861 152.019 394.235 151.939 394.715H149.479C149.599 393.568 150.046 392.688 150.819 392.075C151.592 391.448 152.659 391.135 154.019 391.135C155.446 391.135 156.539 391.475 157.299 392.155C158.059 392.835 158.439 393.848 158.439 395.195V399.415H159.259V401.575H158.239C157.599 401.575 157.112 401.401 156.779 401.055C156.459 400.695 156.299 400.175 156.299 399.495V398.515L156.639 398.655C156.466 399.735 156.032 400.548 155.339 401.095C154.659 401.628 153.819 401.895 152.819 401.895ZM153.339 399.855C153.832 399.855 154.272 399.755 154.659 399.555C155.059 399.341 155.372 399.055 155.599 398.695C155.826 398.321 155.939 397.908 155.939 397.455V397.055L153.339 397.255C152.819 397.295 152.432 397.435 152.179 397.675C151.939 397.901 151.819 398.208 151.819 398.595C151.819 398.995 151.952 399.308 152.219 399.535C152.486 399.748 152.859 399.855 153.339 399.855ZM160.498 394.015C160.498 393.188 160.718 392.555 161.158 392.115C161.611 391.675 162.265 391.455 163.118 391.455H166.398V393.615H163.058V401.575H160.498V394.015ZM172.836 395.675C173.863 395.861 174.636 396.208 175.156 396.715C175.689 397.208 175.956 397.861 175.956 398.675C175.956 399.661 175.563 400.441 174.776 401.015C174.003 401.588 172.943 401.875 171.596 401.875C170.623 401.875 169.783 401.728 169.076 401.435C168.369 401.128 167.823 400.701 167.436 400.155C167.049 399.595 166.849 398.935 166.836 398.175H169.216C169.283 398.721 169.509 399.148 169.896 399.455C170.296 399.748 170.843 399.895 171.536 399.895C172.123 399.895 172.576 399.795 172.896 399.595C173.229 399.381 173.396 399.075 173.396 398.675C173.396 398.368 173.283 398.128 173.056 397.955C172.829 397.768 172.463 397.628 171.956 397.535L170.396 397.275C169.303 397.075 168.476 396.728 167.916 396.235C167.356 395.741 167.076 395.101 167.076 394.315C167.076 393.675 167.236 393.121 167.556 392.655C167.889 392.175 168.363 391.808 168.976 391.555C169.603 391.288 170.343 391.155 171.196 391.155C172.503 391.155 173.549 391.461 174.336 392.075C175.136 392.688 175.569 393.541 175.636 394.635H173.196C173.143 394.155 172.943 393.775 172.596 393.495C172.249 393.215 171.776 393.075 171.176 393.075C170.643 393.075 170.236 393.181 169.956 393.395C169.676 393.595 169.536 393.868 169.536 394.215C169.536 394.508 169.656 394.741 169.896 394.915C170.149 395.088 170.563 395.235 171.136 395.355L172.836 395.675ZM187.333 397.435C187.2 397.208 187.047 397.081 186.873 397.055C186.713 397.028 186.54 397.108 186.353 397.295L184.833 398.875V401.575H182.413V387.575H184.833V395.955L189.053 391.475H192.013L189.173 394.475C189 394.648 188.9 394.828 188.873 395.015C188.847 395.188 188.893 395.375 189.013 395.575L192.313 401.575H189.533L187.333 397.435ZM195.717 401.575C194.864 401.575 194.21 401.355 193.757 400.915C193.317 400.475 193.097 399.841 193.097 399.015V387.575H195.657V399.415H196.737V401.575H195.717ZM202.459 390.375H205.419C205.685 390.375 205.885 390.308 206.019 390.175C206.165 390.028 206.239 389.828 206.239 389.575V387.575H208.799V401.575H206.239V393.335C206.239 393.068 206.165 392.868 206.019 392.735C205.885 392.601 205.685 392.535 205.419 392.535H202.459V390.375ZM215.992 393.975C216.605 393.561 217.052 393.161 217.332 392.775C217.625 392.388 217.772 391.935 217.772 391.415C217.772 390.801 217.578 390.321 217.192 389.975C216.818 389.615 216.298 389.435 215.632 389.435C214.872 389.435 214.285 389.675 213.872 390.155C213.472 390.621 213.272 391.321 213.272 392.255H210.712C210.712 391.188 210.918 390.281 211.332 389.535C211.745 388.788 212.325 388.228 213.072 387.855C213.818 387.468 214.685 387.275 215.672 387.275C216.618 387.275 217.445 387.455 218.152 387.815C218.872 388.161 219.425 388.661 219.812 389.315C220.198 389.955 220.392 390.688 220.392 391.515C220.392 392.381 220.165 393.141 219.712 393.795C219.258 394.448 218.525 395.115 217.512 395.795L215.192 397.315C214.432 397.821 213.865 398.421 213.492 399.115C213.118 399.795 212.932 400.615 212.932 401.575H210.372C210.372 400.215 210.632 399.055 211.152 398.095C211.672 397.121 212.505 396.255 213.652 395.495L215.992 393.975ZM211.492 399.415H220.512V401.575H210.992L211.492 399.415ZM223.701 394.895C223.248 394.895 222.868 394.755 222.561 394.475C222.268 394.195 222.121 393.848 222.121 393.435C222.121 393.155 222.188 392.901 222.321 392.675C222.468 392.448 222.661 392.268 222.901 392.135C223.141 392.001 223.408 391.935 223.701 391.935C224.155 391.935 224.528 392.081 224.821 392.375C225.115 392.655 225.261 393.008 225.261 393.435C225.261 393.715 225.195 393.968 225.061 394.195C224.928 394.408 224.741 394.581 224.501 394.715C224.275 394.835 224.008 394.895 223.701 394.895ZM223.701 401.875C223.248 401.875 222.868 401.735 222.561 401.455C222.268 401.175 222.121 400.828 222.121 400.415C222.121 400.135 222.188 399.881 222.321 399.655C222.468 399.428 222.661 399.248 222.901 399.115C223.141 398.981 223.408 398.915 223.701 398.915C224.155 398.915 224.528 399.061 224.821 399.355C225.115 399.635 225.261 399.988 225.261 400.415C225.261 400.695 225.195 400.948 225.061 401.175C224.928 401.388 224.741 401.555 224.501 401.675C224.275 401.808 224.008 401.875 223.701 401.875ZM232.018 401.875C230.391 401.875 229.124 401.235 228.218 399.955C227.311 398.675 226.858 396.881 226.858 394.575C226.858 393.041 227.058 391.728 227.458 390.635C227.871 389.541 228.464 388.708 229.238 388.135C230.011 387.561 230.938 387.275 232.018 387.275C233.644 387.275 234.911 387.915 235.818 389.195C236.724 390.475 237.178 392.268 237.178 394.575C237.178 396.108 236.971 397.421 236.558 398.515C236.158 399.608 235.571 400.441 234.798 401.015C234.024 401.588 233.098 401.875 232.018 401.875ZM232.018 399.715C232.564 399.715 233.024 399.521 233.398 399.135C233.784 398.735 234.071 398.155 234.258 397.395C234.458 396.621 234.558 395.688 234.558 394.595C234.558 392.928 234.338 391.655 233.898 390.775C233.471 389.881 232.844 389.435 232.018 389.435C231.471 389.435 231.004 389.635 230.618 390.035C230.244 390.421 229.958 391.001 229.758 391.775C229.571 392.535 229.478 393.475 229.478 394.595C229.478 396.248 229.691 397.515 230.118 398.395C230.558 399.275 231.191 399.715 232.018 399.715ZM243.639 401.875C242.012 401.875 240.745 401.235 239.839 399.955C238.932 398.675 238.479 396.881 238.479 394.575C238.479 393.041 238.679 391.728 239.079 390.635C239.492 389.541 240.085 388.708 240.859 388.135C241.632 387.561 242.559 387.275 243.639 387.275C245.265 387.275 246.532 387.915 247.439 389.195C248.345 390.475 248.799 392.268 248.799 394.575C248.799 396.108 248.592 397.421 248.179 398.515C247.779 399.608 247.192 400.441 246.419 401.015C245.645 401.588 244.719 401.875 243.639 401.875ZM243.639 399.715C244.185 399.715 244.645 399.521 245.019 399.135C245.405 398.735 245.692 398.155 245.879 397.395C246.079 396.621 246.179 395.688 246.179 394.595C246.179 392.928 245.959 391.655 245.519 390.775C245.092 389.881 244.465 389.435 243.639 389.435C243.092 389.435 242.625 389.635 242.239 390.035C241.865 390.421 241.579 391.001 241.379 391.775C241.192 392.535 241.099 393.475 241.099 394.595C241.099 396.248 241.312 397.515 241.739 398.395C242.179 399.275 242.812 399.715 243.639 399.715ZM256.063 395.275H270.983V397.435H256.063V395.275ZM278.064 390.375H281.024C281.291 390.375 281.491 390.308 281.624 390.175C281.771 390.028 281.844 389.828 281.844 389.575V387.575H284.404V401.575H281.844V393.335C281.844 393.068 281.771 392.868 281.624 392.735C281.491 392.601 281.291 392.535 281.024 392.535H278.064V390.375ZM290.934 401.875C290.068 401.875 289.301 401.708 288.634 401.375C287.981 401.041 287.448 400.581 287.034 399.995C286.634 399.408 286.381 398.728 286.274 397.955H288.814C288.894 398.488 289.128 398.915 289.514 399.235C289.901 399.555 290.401 399.715 291.014 399.715C292.014 399.715 292.761 399.261 293.254 398.355C293.748 397.435 293.994 396.068 293.994 394.255L294.334 393.755C294.201 394.688 293.814 395.415 293.174 395.935C292.534 396.441 291.694 396.695 290.654 396.695C289.774 396.695 288.988 396.508 288.294 396.135C287.601 395.748 287.061 395.208 286.674 394.515C286.288 393.808 286.094 393.001 286.094 392.095C286.094 391.148 286.294 390.315 286.694 389.595C287.108 388.861 287.681 388.295 288.414 387.895C289.161 387.481 290.008 387.275 290.954 387.275C291.914 387.275 292.801 387.501 293.614 387.955C294.428 388.408 295.094 389.175 295.614 390.255C296.134 391.321 296.394 392.728 296.394 394.475C296.394 396.021 296.174 397.355 295.734 398.475C295.308 399.581 294.688 400.428 293.874 401.015C293.074 401.588 292.094 401.875 290.934 401.875ZM291.154 394.655C291.648 394.655 292.074 394.548 292.434 394.335C292.794 394.121 293.068 393.828 293.254 393.455C293.454 393.081 293.554 392.641 293.554 392.135C293.554 391.601 293.448 391.135 293.234 390.735C293.021 390.321 292.728 390.001 292.354 389.775C291.981 389.548 291.554 389.435 291.074 389.435C290.594 389.435 290.174 389.541 289.814 389.755C289.454 389.968 289.174 390.275 288.974 390.675C288.774 391.061 288.674 391.515 288.674 392.035C288.674 392.835 288.901 393.475 289.354 393.955C289.821 394.421 290.421 394.655 291.154 394.655ZM299.502 394.895C299.049 394.895 298.669 394.755 298.362 394.475C298.069 394.195 297.922 393.848 297.922 393.435C297.922 393.155 297.989 392.901 298.122 392.675C298.269 392.448 298.462 392.268 298.702 392.135C298.942 392.001 299.209 391.935 299.502 391.935C299.955 391.935 300.329 392.081 300.622 392.375C300.915 392.655 301.062 393.008 301.062 393.435C301.062 393.715 300.995 393.968 300.862 394.195C300.729 394.408 300.542 394.581 300.302 394.715C300.075 394.835 299.809 394.895 299.502 394.895ZM299.502 401.875C299.049 401.875 298.669 401.735 298.362 401.455C298.069 401.175 297.922 400.828 297.922 400.415C297.922 400.135 297.989 399.881 298.122 399.655C298.269 399.428 298.462 399.248 298.702 399.115C298.942 398.981 299.209 398.915 299.502 398.915C299.955 398.915 300.329 399.061 300.622 399.355C300.915 399.635 301.062 399.988 301.062 400.415C301.062 400.695 300.995 400.948 300.862 401.175C300.729 401.388 300.542 401.555 300.302 401.675C300.075 401.808 299.809 401.875 299.502 401.875ZM307.818 401.875C306.192 401.875 304.925 401.235 304.018 399.955C303.112 398.675 302.658 396.881 302.658 394.575C302.658 393.041 302.858 391.728 303.258 390.635C303.672 389.541 304.265 388.708 305.038 388.135C305.812 387.561 306.738 387.275 307.818 387.275C309.445 387.275 310.712 387.915 311.618 389.195C312.525 390.475 312.978 392.268 312.978 394.575C312.978 396.108 312.772 397.421 312.358 398.515C311.958 399.608 311.372 400.441 310.598 401.015C309.825 401.588 308.898 401.875 307.818 401.875ZM307.818 399.715C308.365 399.715 308.825 399.521 309.198 399.135C309.585 398.735 309.872 398.155 310.058 397.395C310.258 396.621 310.358 395.688 310.358 394.595C310.358 392.928 310.138 391.655 309.698 390.775C309.272 389.881 308.645 389.435 307.818 389.435C307.272 389.435 306.805 389.635 306.418 390.035C306.045 390.421 305.758 391.001 305.558 391.775C305.372 392.535 305.278 393.475 305.278 394.595C305.278 396.248 305.492 397.515 305.918 398.395C306.358 399.275 306.992 399.715 307.818 399.715ZM319.439 401.875C317.813 401.875 316.546 401.235 315.639 399.955C314.733 398.675 314.279 396.881 314.279 394.575C314.279 393.041 314.479 391.728 314.879 390.635C315.293 389.541 315.886 388.708 316.659 388.135C317.433 387.561 318.359 387.275 319.439 387.275C321.066 387.275 322.333 387.915 323.239 389.195C324.146 390.475 324.599 392.268 324.599 394.575C324.599 396.108 324.393 397.421 323.979 398.515C323.579 399.608 322.993 400.441 322.219 401.015C321.446 401.588 320.519 401.875 319.439 401.875ZM319.439 399.715C319.986 399.715 320.446 399.521 320.819 399.135C321.206 398.735 321.493 398.155 321.679 397.395C321.879 396.621 321.979 395.688 321.979 394.595C321.979 392.928 321.759 391.655 321.319 390.775C320.893 389.881 320.266 389.435 319.439 389.435C318.893 389.435 318.426 389.635 318.039 390.035C317.666 390.421 317.379 391.001 317.179 391.775C316.993 392.535 316.899 393.475 316.899 394.595C316.899 396.248 317.113 397.515 317.539 398.395C317.979 399.275 318.613 399.715 319.439 399.715Z" fill="#EBF4FF"/>
<g filter="url(#filter0_gf_1_8)">
<rect x="-602" y="360.279" width="708.385" height="689.652" rx="344.826" transform="rotate(-9.2018 -602 360.279)" fill="#5471FF"/>
</g>
<g clip-path="url(#clip1_1_8)">
<path d="M33 138.518C33 136.023 35.0228 134 37.518 134H313.482C315.977 134 318 136.023 318 138.518V178.59C318 181.085 315.977 183.108 313.482 183.108H37.518C35.0228 183.108 33 181.085 33 178.59V138.518Z" fill="#88C1FF"/>
<path d="M46.8739 147.154H51.4179L57.4979 164.274H57.6259L63.7059 147.154H68.2819L59.9619 169.554H55.1619L46.8739 147.154ZM72.7389 170.066C70.9896 170.066 69.6029 169.597 68.5789 168.658C67.5549 167.719 67.0429 166.503 67.0429 165.01C67.0429 163.581 67.5229 162.439 68.4829 161.586C69.4642 160.711 70.8722 160.199 72.7069 160.05L76.4829 159.794C76.8882 159.751 77.1869 159.634 77.3789 159.442C77.5922 159.229 77.6989 158.909 77.6989 158.482C77.6989 157.693 77.4216 157.106 76.8669 156.722C76.3336 156.317 75.5976 156.114 74.6589 156.114C73.6562 156.114 72.8776 156.338 72.3229 156.786C71.7896 157.213 71.4589 157.81 71.3309 158.578H67.3949C67.5869 156.743 68.3016 155.335 69.5389 154.354C70.7762 153.351 72.4829 152.85 74.6589 152.85C76.9416 152.85 78.6909 153.394 79.9069 154.482C81.1229 155.57 81.7309 157.191 81.7309 159.346V166.098H83.0429V169.554H81.4109C80.3869 169.554 79.6082 169.277 79.0749 168.722C78.5629 168.146 78.3069 167.314 78.3069 166.226V164.658L78.8509 164.882C78.5736 166.61 77.8802 167.911 76.7709 168.786C75.6829 169.639 74.3389 170.066 72.7389 170.066ZM73.5709 166.802C74.3602 166.802 75.0642 166.642 75.6829 166.322C76.3229 165.981 76.8242 165.522 77.1869 164.946C77.5496 164.349 77.7309 163.687 77.7309 162.962V162.322L73.5709 162.642C72.7389 162.706 72.1202 162.93 71.7149 163.314C71.3309 163.677 71.1389 164.167 71.1389 164.786C71.1389 165.426 71.3522 165.927 71.7789 166.29C72.2056 166.631 72.8029 166.802 73.5709 166.802ZM85.0251 157.458C85.0251 156.135 85.3771 155.122 86.0811 154.418C86.8065 153.714 87.8518 153.362 89.2171 153.362H94.4651V156.818H89.1211V169.554H85.0251V157.458ZM96.0586 153.362H100.155V169.554H96.0586V153.362ZM98.1066 150.994C97.3813 150.994 96.784 150.77 96.3146 150.322C95.8453 149.874 95.6106 149.319 95.6106 148.658C95.6106 148.231 95.7173 147.837 95.9306 147.474C96.144 147.111 96.4426 146.823 96.8266 146.61C97.2106 146.397 97.6373 146.29 98.1066 146.29C98.8106 146.29 99.3973 146.525 99.8666 146.994C100.357 147.442 100.603 147.997 100.603 148.658C100.603 149.319 100.368 149.874 99.8986 150.322C99.4293 150.77 98.832 150.994 98.1066 150.994ZM108.051 170.066C106.302 170.066 104.915 169.597 103.891 168.658C102.867 167.719 102.355 166.503 102.355 165.01C102.355 163.581 102.835 162.439 103.795 161.586C104.777 160.711 106.185 160.199 108.019 160.05L111.795 159.794C112.201 159.751 112.499 159.634 112.691 159.442C112.905 159.229 113.011 158.909 113.011 158.482C113.011 157.693 112.734 157.106 112.179 156.722C111.646 156.317 110.91 156.114 109.971 156.114C108.969 156.114 108.19 156.338 107.635 156.786C107.102 157.213 106.771 157.81 106.643 158.578H102.707C102.899 156.743 103.614 155.335 104.851 154.354C106.089 153.351 107.795 152.85 109.971 152.85C112.254 152.85 114.003 153.394 115.219 154.482C116.435 155.57 117.043 157.191 117.043 159.346V166.098H118.355V169.554H116.723C115.699 169.554 114.921 169.277 114.387 168.722C113.875 168.146 113.619 167.314 113.619 166.226V164.658L114.163 164.882C113.886 166.61 113.193 167.911 112.083 168.786C110.995 169.639 109.651 170.066 108.051 170.066ZM108.883 166.802C109.673 166.802 110.377 166.642 110.995 166.322C111.635 165.981 112.137 165.522 112.499 164.946C112.862 164.349 113.043 163.687 113.043 162.962V162.322L108.883 162.642C108.051 162.706 107.433 162.93 107.027 163.314C106.643 163.677 106.451 164.167 106.451 164.786C106.451 165.426 106.665 165.927 107.091 166.29C107.518 166.631 108.115 166.802 108.883 166.802ZM131.346 160.05C131.346 158.813 131.101 157.895 130.61 157.298C130.12 156.701 129.373 156.402 128.37 156.402C127.176 156.402 126.226 156.829 125.522 157.682C124.84 158.514 124.498 159.783 124.498 161.49V169.554H120.402V153.362H124.114V157.202L123.698 156.69C124.146 155.431 124.85 154.482 125.81 153.842C126.77 153.181 127.954 152.85 129.362 152.85C130.621 152.85 131.709 153.106 132.626 153.618C133.544 154.13 134.237 154.877 134.706 155.858C135.197 156.818 135.442 157.959 135.442 159.282V169.554H131.346V160.05ZM145.617 169.554C143.718 169.554 142.246 169.063 141.201 168.082C140.177 167.079 139.665 165.682 139.665 163.89V156.818H136.721V153.362H138.609C139.035 153.362 139.355 153.255 139.569 153.042C139.803 152.807 139.921 152.487 139.921 152.082V148.434H143.665V153.362H147.057V156.818H143.761V165.138C143.761 165.479 143.835 165.725 143.985 165.874C144.155 166.023 144.411 166.098 144.753 166.098H147.473V169.554H145.617ZM155.837 170.066C154.407 170.066 153.138 169.714 152.029 169.01C150.919 168.306 150.055 167.303 149.437 166.002C148.839 164.701 148.541 163.186 148.541 161.458C148.541 159.709 148.839 158.194 149.437 156.914C150.055 155.613 150.919 154.61 152.029 153.906C153.138 153.202 154.407 152.85 155.837 152.85C157.117 152.85 158.247 153.138 159.229 153.714C160.21 154.269 160.989 155.079 161.565 156.146L161.053 156.786V147.154H165.117V169.554H161.405V165.682L161.885 166.258C161.33 167.474 160.53 168.413 159.485 169.074C158.439 169.735 157.223 170.066 155.837 170.066ZM156.893 166.578C157.725 166.578 158.461 166.375 159.101 165.97C159.741 165.543 160.242 164.946 160.605 164.178C160.967 163.389 161.149 162.482 161.149 161.458C161.149 160.434 160.967 159.538 160.605 158.77C160.242 157.981 159.741 157.373 159.101 156.946C158.461 156.519 157.725 156.306 156.893 156.306C156.061 156.306 155.325 156.519 154.685 156.946C154.066 157.373 153.586 157.981 153.245 158.77C152.903 159.538 152.733 160.434 152.733 161.458C152.733 163.015 153.106 164.263 153.853 165.202C154.599 166.119 155.613 166.578 156.893 166.578ZM173.051 170.066C171.302 170.066 169.915 169.597 168.891 168.658C167.867 167.719 167.355 166.503 167.355 165.01C167.355 163.581 167.835 162.439 168.795 161.586C169.777 160.711 171.185 160.199 173.019 160.05L176.795 159.794C177.201 159.751 177.499 159.634 177.691 159.442C177.905 159.229 178.011 158.909 178.011 158.482C178.011 157.693 177.734 157.106 177.179 156.722C176.646 156.317 175.91 156.114 174.971 156.114C173.969 156.114 173.19 156.338 172.635 156.786C172.102 157.213 171.771 157.81 171.643 158.578H167.707C167.899 156.743 168.614 155.335 169.851 154.354C171.089 153.351 172.795 152.85 174.971 152.85C177.254 152.85 179.003 153.394 180.219 154.482C181.435 155.57 182.043 157.191 182.043 159.346V166.098H183.355V169.554H181.723C180.699 169.554 179.921 169.277 179.387 168.722C178.875 168.146 178.619 167.314 178.619 166.226V164.658L179.163 164.882C178.886 166.61 178.193 167.911 177.083 168.786C175.995 169.639 174.651 170.066 173.051 170.066ZM173.883 166.802C174.673 166.802 175.377 166.642 175.995 166.322C176.635 165.981 177.137 165.522 177.499 164.946C177.862 164.349 178.043 163.687 178.043 162.962V162.322L173.883 162.642C173.051 162.706 172.433 162.93 172.027 163.314C171.643 163.677 171.451 164.167 171.451 164.786C171.451 165.426 171.665 165.927 172.091 166.29C172.518 166.631 173.115 166.802 173.883 166.802ZM192.826 175.954C191.247 175.954 189.892 175.677 188.762 175.122C187.631 174.567 186.756 173.821 186.138 172.882C185.54 171.965 185.178 170.909 185.05 169.714H189.018C189.188 170.653 189.594 171.389 190.234 171.922C190.874 172.455 191.738 172.722 192.826 172.722C194.084 172.722 195.066 172.37 195.77 171.666C196.495 170.962 196.858 169.981 196.858 168.722V164.978L197.178 163.122V153.394H200.666V167.57C200.666 170.194 200.004 172.242 198.682 173.714C197.359 175.207 195.407 175.954 192.826 175.954ZM191.77 168.85C190.362 168.85 189.124 168.53 188.058 167.89C186.991 167.229 186.159 166.301 185.562 165.106C184.964 163.89 184.666 162.471 184.666 160.85C184.666 159.25 184.964 157.853 185.562 156.658C186.159 155.442 186.991 154.514 188.058 153.874C189.124 153.213 190.362 152.882 191.77 152.882C193.156 152.882 194.362 153.202 195.386 153.842C196.41 154.482 197.199 155.41 197.754 156.626C198.308 157.821 198.586 159.239 198.586 160.882C198.586 162.525 198.308 163.943 197.754 165.138C197.199 166.333 196.41 167.25 195.386 167.89C194.362 168.53 193.156 168.85 191.77 168.85ZM192.698 165.618C193.53 165.618 194.266 165.426 194.906 165.042C195.546 164.637 196.036 164.071 196.378 163.346C196.74 162.621 196.922 161.789 196.922 160.85C196.922 159.933 196.74 159.122 196.378 158.418C196.036 157.693 195.546 157.138 194.906 156.754C194.266 156.349 193.53 156.146 192.698 156.146C191.866 156.146 191.14 156.349 190.522 156.754C189.903 157.138 189.423 157.682 189.082 158.386C188.74 159.09 188.57 159.922 188.57 160.882C188.57 162.29 188.943 163.431 189.69 164.306C190.436 165.181 191.439 165.618 192.698 165.618Z" fill="black"/>
<path d="M271.757 164.804C276.968 169.27 284.658 169.27 289.869 164.804" stroke="#111111" stroke-width="3.5207" stroke-linecap="round" stroke-linejoin="round"/>
<path d="M281.926 150.574V148.813H278.405V150.574H280.166H281.926ZM280.166 158.724H278.405C278.405 159.696 279.194 160.485 280.166 160.485V158.724ZM283.525 160.485C284.497 160.485 285.285 159.696 285.285 158.724C285.285 157.752 284.497 156.964 283.525 156.964V158.724V160.485ZM280.166 150.574H278.405V158.724H280.166H281.926V150.574H280.166ZM280.166 158.724V160.485H283.525V158.724V156.964H280.166V158.724Z" fill="#111111"/>
<path d="M290.981 150.574C290.981 149.601 290.193 148.813 289.221 148.813C288.249 148.813 287.461 149.601 287.461 150.574H289.221H290.981ZM287.461 154.649V156.409H290.981V154.649H289.221H287.461ZM289.221 150.574H287.461V154.649H289.221H290.981V150.574H289.221Z" fill="#111111"/>
<path d="M272.87 150.574C272.87 149.601 272.082 148.813 271.11 148.813C270.137 148.813 269.349 149.601 269.349 150.574H271.11H272.87ZM269.349 154.649V156.409H272.87V154.649H271.11H269.349ZM271.11 150.574H269.349V154.649H271.11H272.87V150.574H271.11Z" fill="#111111"/>
</g>
<path d="M128.765 445.505C128.899 445.286 128.743 445 128.486 445H122.324C122.145 445 122 445.146 122 445.325V476.675C122 476.854 122.145 477 122.324 477H128.329C128.584 477 128.74 476.718 128.609 476.498C126.078 472.233 124.575 466.907 124.575 461.131C124.575 455.237 126.139 449.813 128.765 445.505Z" fill="#EBF4FF"/>
<path d="M228.739 472.546C226.822 472.546 225.327 472.026 224.287 471.019C223.215 470.013 222.695 468.616 222.695 466.798V459.62H219.705V456.113H221.622C222.499 456.113 222.954 455.691 222.954 454.814V451.112H226.756V456.113H230.201V459.62H226.853V468.064C226.853 468.713 227.177 469.038 227.86 469.038H230.623V472.545H228.738L228.739 472.546Z" fill="#EBF4FF"/>
<path d="M214.603 462.9C214.603 460.431 213.596 459.197 211.581 459.197C210.379 459.197 209.404 459.619 208.722 460.463C208.007 461.34 207.65 462.639 207.65 464.36V472.545H203.49V456.113H207.26V458.517C208.332 456.568 210.088 455.595 212.59 455.595C214.506 455.595 216.034 456.179 217.139 457.316C218.211 458.485 218.763 460.076 218.763 462.122V472.547H214.604V462.902L214.603 462.9Z" fill="#EBF4FF"/>
<path d="M186.721 471.636C185.68 470.694 185.161 469.46 185.161 467.933C185.161 466.407 185.648 465.302 186.656 464.426C187.63 463.549 189.061 463.062 190.913 462.9L194.747 462.64C195.56 462.575 195.982 462.12 195.982 461.308C195.982 460.496 195.723 459.911 195.17 459.489C194.618 459.099 193.837 458.905 192.896 458.905C190.881 458.905 189.744 459.749 189.516 461.405H185.519C185.713 459.554 186.428 458.092 187.696 457.086C188.963 456.079 190.686 455.592 192.929 455.592C195.171 455.592 196.958 456.144 198.226 457.248C199.461 458.353 200.078 460.009 200.078 462.185V469.038H201.411V472.545H199.753C197.804 472.545 196.763 471.57 196.634 469.654C195.626 471.927 193.741 473.064 190.947 473.064C189.16 473.064 187.762 472.578 186.723 471.636H186.721ZM194.845 468.616C195.625 467.868 196.015 466.959 196.015 465.855V465.205L191.791 465.53C190.134 465.659 189.321 466.374 189.321 467.706C189.321 468.355 189.549 468.842 189.971 469.199C190.394 469.556 191.012 469.751 191.791 469.751C193.026 469.751 194.034 469.361 194.846 468.615L194.845 468.616Z" fill="#EBF4FF"/>
<path d="M181.293 453.71C180.545 453.71 179.96 453.482 179.473 453.027C178.986 452.605 178.758 452.02 178.758 451.338C178.758 450.655 179.018 450.104 179.506 449.617C179.993 449.162 180.578 448.934 181.293 448.934C182.008 448.934 182.626 449.162 183.113 449.617C183.601 450.104 183.828 450.657 183.828 451.338C183.828 452.019 183.601 452.604 183.113 453.027C182.626 453.482 182.041 453.71 181.293 453.71ZM179.214 472.546V456.113H183.373V472.546H179.214Z" fill="#EBF4FF"/>
<path d="M167.613 460.27C167.613 458.938 167.97 457.899 168.718 457.185C169.433 456.47 170.473 456.113 171.87 456.113H177.199V459.62H171.772V472.546H167.613V460.27Z" fill="#EBF4FF"/>
<path d="M150.942 471.636C149.902 470.694 149.383 469.46 149.383 467.933C149.383 466.407 149.87 465.302 150.877 464.426C151.851 463.549 153.282 463.062 155.134 462.9L158.969 462.64C159.782 462.575 160.204 462.12 160.204 461.308C160.204 460.496 159.944 459.911 159.391 459.489C158.839 459.099 158.058 458.905 157.117 458.905C155.102 458.905 153.965 459.749 153.737 461.405H149.74C149.935 459.554 150.649 458.092 151.917 457.086C153.184 456.079 154.908 455.592 157.15 455.592C159.392 455.592 161.179 456.144 162.447 457.248C163.682 458.353 164.299 460.009 164.299 462.185V469.038H165.632V472.545H163.975C162.025 472.545 160.985 471.57 160.855 469.654C159.848 471.927 157.963 473.064 155.168 473.064C153.381 473.064 151.983 472.578 150.944 471.636H150.942ZM159.066 468.616C159.845 467.868 160.236 466.959 160.236 465.855V465.205L156.012 465.53C154.354 465.659 153.542 466.374 153.542 467.706C153.542 468.355 153.769 468.842 154.192 469.199C154.614 469.556 155.232 469.751 156.012 469.751C157.247 469.751 158.254 469.361 159.067 468.615L159.066 468.616Z" fill="#EBF4FF"/>
<path d="M138.176 470.958L130.377 449.811H134.959L141.214 467.441L147.438 449.811H152.086L144.224 470.966C143.755 472.228 142.55 473.066 141.202 473.066C139.852 473.066 138.644 472.224 138.178 470.958H138.176Z" fill="#EBF4FF"/>
<path d="M232.235 445.505C232.102 445.286 232.257 445 232.514 445H238.676C238.855 445 239 445.146 239 445.325V476.675C239 476.854 238.855 477 238.676 477H232.671C232.416 477 232.26 476.718 232.391 476.498C234.922 472.233 236.425 466.907 236.425 461.131C236.425 455.237 234.861 449.813 232.235 445.505Z" fill="#EBF4FF"/>
<path d="M42.386 219.018C42.23 218.741 42.0393 218.593 41.814 218.576C41.5887 218.541 41.3807 218.637 41.19 218.862L37.758 222.736V227H34.248V208.8H37.758V218.004L45.532 208.8H49.77L44.882 214.442C44.6393 214.719 44.5093 214.979 44.492 215.222C44.4747 215.465 44.544 215.733 44.7 216.028L50.68 227H46.65L42.386 219.018ZM52.123 208.8H55.633V227H52.123V208.8ZM64.6152 213.844H67.9432V227H64.6152V213.844ZM66.2792 211.92C65.6899 211.92 65.2045 211.738 64.8232 211.374C64.4419 211.01 64.2512 210.559 64.2512 210.022C64.2512 209.675 64.3379 209.355 64.5112 209.06C64.6845 208.765 64.9272 208.531 65.2392 208.358C65.5512 208.185 65.8979 208.098 66.2792 208.098C66.8512 208.098 67.3279 208.289 67.7092 208.67C68.1079 209.034 68.3072 209.485 68.3072 210.022C68.3072 210.559 68.1165 211.01 67.7352 211.374C67.3539 211.738 66.8685 211.92 66.2792 211.92ZM76.9296 213.844H79.9456V216.99L79.5556 216.522C80.0236 215.534 80.6736 214.771 81.5056 214.234C82.355 213.697 83.343 213.428 84.4696 213.428C85.631 213.428 86.6536 213.714 87.5376 214.286C88.439 214.858 89.141 215.673 89.6436 216.73C90.1463 217.787 90.3976 219.018 90.3976 220.422C90.3976 221.843 90.1463 223.083 89.6436 224.14C89.1583 225.18 88.465 225.986 87.5636 226.558C86.6623 227.13 85.631 227.416 84.4696 227.416C83.4296 227.416 82.511 227.191 81.7136 226.74C80.9163 226.289 80.2836 225.631 79.8156 224.764L80.2576 224.244V232.2H76.9296V213.844ZM83.6376 224.608C84.3136 224.608 84.903 224.435 85.4056 224.088C85.9256 223.741 86.3243 223.256 86.6016 222.632C86.879 221.991 87.0176 221.254 87.0176 220.422C87.0176 219.157 86.7056 218.151 86.0816 217.406C85.475 216.643 84.6603 216.262 83.6376 216.262C82.9443 216.262 82.3376 216.435 81.8176 216.782C81.2976 217.111 80.8903 217.597 80.5956 218.238C80.301 218.862 80.1536 219.59 80.1536 220.422C80.1536 221.254 80.301 221.991 80.5956 222.632C80.8903 223.256 81.2976 223.741 81.8176 224.088C82.3376 224.435 82.9443 224.608 83.6376 224.608ZM92.1876 217.172C92.1876 216.097 92.4736 215.274 93.0456 214.702C93.6349 214.13 94.4842 213.844 95.5936 213.844H99.8576V216.652H95.5156V227H92.1876V217.172ZM105.006 227.416C103.584 227.416 102.458 227.035 101.626 226.272C100.794 225.509 100.378 224.521 100.378 223.308C100.378 222.147 100.768 221.219 101.548 220.526C102.345 219.815 103.489 219.399 104.98 219.278L108.048 219.07C108.377 219.035 108.62 218.94 108.776 218.784C108.949 218.611 109.036 218.351 109.036 218.004C109.036 217.363 108.81 216.886 108.36 216.574C107.926 216.245 107.328 216.08 106.566 216.08C105.751 216.08 105.118 216.262 104.668 216.626C104.234 216.973 103.966 217.458 103.862 218.082H100.664C100.82 216.591 101.4 215.447 102.406 214.65C103.411 213.835 104.798 213.428 106.566 213.428C108.42 213.428 109.842 213.87 110.83 214.754C111.818 215.638 112.312 216.955 112.312 218.706V224.192H113.378V227H112.052C111.22 227 110.587 226.775 110.154 226.324C109.738 225.856 109.53 225.18 109.53 224.296V223.022L109.972 223.204C109.746 224.608 109.183 225.665 108.282 226.376C107.398 227.069 106.306 227.416 105.006 227.416ZM105.682 224.764C106.323 224.764 106.895 224.634 107.398 224.374C107.918 224.097 108.325 223.724 108.62 223.256C108.914 222.771 109.062 222.233 109.062 221.644V221.124L105.682 221.384C105.006 221.436 104.503 221.618 104.174 221.93C103.862 222.225 103.706 222.623 103.706 223.126C103.706 223.646 103.879 224.053 104.226 224.348C104.572 224.625 105.058 224.764 105.682 224.764ZM121.437 221.618C121.264 221.323 121.064 221.159 120.839 221.124C120.631 221.089 120.406 221.193 120.163 221.436L118.187 223.49V227H115.041V208.8H118.187V219.694L123.673 213.87H127.521L123.829 217.77C123.604 217.995 123.474 218.229 123.439 218.472C123.404 218.697 123.465 218.94 123.621 219.2L127.911 227H124.297L121.437 221.618ZM135.725 219.33C137.06 219.573 138.065 220.023 138.741 220.682C139.435 221.323 139.781 222.173 139.781 223.23C139.781 224.513 139.27 225.527 138.247 226.272C137.242 227.017 135.864 227.39 134.113 227.39C132.848 227.39 131.756 227.199 130.837 226.818C129.919 226.419 129.208 225.865 128.705 225.154C128.203 224.426 127.943 223.568 127.925 222.58H131.019C131.106 223.291 131.401 223.845 131.903 224.244C132.423 224.625 133.134 224.816 134.035 224.816C134.798 224.816 135.387 224.686 135.803 224.426C136.237 224.149 136.453 223.75 136.453 223.23C136.453 222.831 136.306 222.519 136.011 222.294C135.717 222.051 135.24 221.869 134.581 221.748L132.553 221.41C131.132 221.15 130.057 220.699 129.329 220.058C128.601 219.417 128.237 218.585 128.237 217.562C128.237 216.73 128.445 216.011 128.861 215.404C129.295 214.78 129.91 214.303 130.707 213.974C131.522 213.627 132.484 213.454 133.593 213.454C135.292 213.454 136.653 213.853 137.675 214.65C138.715 215.447 139.279 216.557 139.365 217.978H136.193C136.124 217.354 135.864 216.86 135.413 216.496C134.963 216.132 134.347 215.95 133.567 215.95C132.874 215.95 132.345 216.089 131.981 216.366C131.617 216.626 131.435 216.981 131.435 217.432C131.435 217.813 131.591 218.117 131.903 218.342C132.233 218.567 132.77 218.758 133.515 218.914L135.725 219.33ZM141.523 213.844H144.851V227H141.523V213.844ZM143.187 211.92C142.598 211.92 142.113 211.738 141.731 211.374C141.35 211.01 141.159 210.559 141.159 210.022C141.159 209.675 141.246 209.355 141.419 209.06C141.593 208.765 141.835 208.531 142.147 208.358C142.459 208.185 142.806 208.098 143.187 208.098C143.759 208.098 144.236 208.289 144.617 208.67C145.016 209.034 145.215 209.485 145.215 210.022C145.215 210.559 145.025 211.01 144.643 211.374C144.262 211.738 143.777 211.92 143.187 211.92ZM154.388 219.33C155.722 219.573 156.728 220.023 157.404 220.682C158.097 221.323 158.444 222.173 158.444 223.23C158.444 224.513 157.932 225.527 156.91 226.272C155.904 227.017 154.526 227.39 152.776 227.39C151.51 227.39 150.418 227.199 149.5 226.818C148.581 226.419 147.87 225.865 147.368 225.154C146.865 224.426 146.605 223.568 146.588 222.58H149.682C149.768 223.291 150.063 223.845 150.566 224.244C151.086 224.625 151.796 224.816 152.698 224.816C153.46 224.816 154.05 224.686 154.466 224.426C154.899 224.149 155.116 223.75 155.116 223.23C155.116 222.831 154.968 222.519 154.674 222.294C154.379 222.051 153.902 221.869 153.244 221.748L151.216 221.41C149.794 221.15 148.72 220.699 147.992 220.058C147.264 219.417 146.9 218.585 146.9 217.562C146.9 216.73 147.108 216.011 147.524 215.404C147.957 214.78 148.572 214.303 149.369 213.974C150.184 213.627 151.146 213.454 152.256 213.454C153.954 213.454 155.315 213.853 156.338 214.65C157.378 215.447 157.941 216.557 158.028 217.978H154.856C154.786 217.354 154.526 216.86 154.076 216.496C153.625 216.132 153.01 215.95 152.23 215.95C151.536 215.95 151.008 216.089 150.644 216.366C150.28 216.626 150.098 216.981 150.098 217.432C150.098 217.813 150.254 218.117 150.566 218.342C150.895 218.567 151.432 218.758 152.178 218.914L154.388 219.33ZM167.774 218.81H177.186V221.618H167.774V218.81ZM187.125 213.844H190.141V216.938L189.803 216.548C190.167 215.525 190.713 214.754 191.441 214.234C192.186 213.697 193.079 213.428 194.119 213.428C195.246 213.428 196.182 213.723 196.927 214.312C197.69 214.901 198.201 215.725 198.461 216.782L197.915 216.808C198.21 215.716 198.738 214.884 199.501 214.312C200.281 213.723 201.226 213.428 202.335 213.428C203.271 213.428 204.086 213.636 204.779 214.052C205.472 214.468 206.001 215.066 206.365 215.846C206.729 216.609 206.911 217.519 206.911 218.576V227H203.583V219.122C203.583 218.186 203.41 217.484 203.063 217.016C202.716 216.548 202.196 216.314 201.503 216.314C200.688 216.314 200.012 216.643 199.475 217.302C198.955 217.961 198.695 218.957 198.695 220.292V227H195.367V219.122C195.367 218.186 195.194 217.484 194.847 217.016C194.5 216.548 193.98 216.314 193.287 216.314C192.438 216.314 191.753 216.652 191.233 217.328C190.713 218.004 190.453 218.992 190.453 220.292V227H187.125V213.844ZM215.173 227.416C213.821 227.416 212.634 227.13 211.611 226.558C210.588 225.969 209.8 225.154 209.245 224.114C208.69 223.057 208.413 221.826 208.413 220.422C208.413 219.035 208.69 217.813 209.245 216.756C209.8 215.699 210.58 214.884 211.585 214.312C212.608 213.723 213.804 213.428 215.173 213.428C216.646 213.428 217.894 213.766 218.917 214.442C219.94 215.118 220.668 216.054 221.101 217.25C221.552 218.429 221.664 219.781 221.439 221.306H210.779L211.741 220.318C211.654 221.705 211.914 222.788 212.521 223.568C213.145 224.348 214.029 224.738 215.173 224.738C215.953 224.738 216.594 224.573 217.097 224.244C217.6 223.897 217.92 223.49 218.059 223.022H221.361C221.188 223.871 220.824 224.634 220.269 225.31C219.714 225.969 219.004 226.489 218.137 226.87C217.27 227.234 216.282 227.416 215.173 227.416ZM210.857 219.044H219.151L218.111 219.98C218.267 219.217 218.241 218.541 218.033 217.952C217.842 217.345 217.487 216.877 216.967 216.548C216.464 216.201 215.84 216.028 215.095 216.028C214.402 216.028 213.804 216.184 213.301 216.496C212.798 216.808 212.408 217.267 212.131 217.874C211.871 218.481 211.741 219.217 211.741 220.084L210.857 219.044ZM232.224 219.278C232.224 218.273 232.025 217.527 231.626 217.042C231.227 216.557 230.621 216.314 229.806 216.314C228.835 216.314 228.064 216.661 227.492 217.354C226.937 218.03 226.66 219.061 226.66 220.448V227H223.332V213.844H226.348V216.964L226.01 216.548C226.374 215.525 226.946 214.754 227.726 214.234C228.506 213.697 229.468 213.428 230.612 213.428C231.635 213.428 232.519 213.636 233.264 214.052C234.009 214.468 234.573 215.075 234.954 215.872C235.353 216.652 235.552 217.579 235.552 218.654V227H232.224V219.278ZM246.595 219.278C246.595 218.273 246.396 217.527 245.997 217.042C245.598 216.557 244.992 216.314 244.177 216.314C243.206 216.314 242.435 216.661 241.863 217.354C241.308 218.03 241.031 219.061 241.031 220.448V227H237.703V213.844H240.719V216.964L240.381 216.548C240.745 215.525 241.317 214.754 242.097 214.234C242.877 213.697 243.839 213.428 244.983 213.428C246.006 213.428 246.89 213.636 247.635 214.052C248.38 214.468 248.944 215.075 249.325 215.872C249.724 216.652 249.923 217.579 249.923 218.654V227H246.595V219.278ZM258.159 227.416C256.807 227.416 255.62 227.13 254.597 226.558C253.575 225.969 252.786 225.154 252.231 224.114C251.677 223.057 251.399 221.826 251.399 220.422C251.399 219.035 251.677 217.813 252.231 216.756C252.786 215.699 253.566 214.884 254.571 214.312C255.594 213.723 256.79 213.428 258.159 213.428C259.633 213.428 260.881 213.766 261.903 214.442C262.926 215.118 263.654 216.054 264.087 217.25C264.538 218.429 264.651 219.781 264.425 221.306H253.765L254.727 220.318C254.641 221.705 254.901 222.788 255.507 223.568C256.131 224.348 257.015 224.738 258.159 224.738C258.939 224.738 259.581 224.573 260.083 224.244C260.586 223.897 260.907 223.49 261.045 223.022H264.347C264.174 223.871 263.81 224.634 263.255 225.31C262.701 225.969 261.99 226.489 261.123 226.87C260.257 227.234 259.269 227.416 258.159 227.416ZM253.843 219.044H262.137L261.097 219.98C261.253 219.217 261.227 218.541 261.019 217.952C260.829 217.345 260.473 216.877 259.953 216.548C259.451 216.201 258.827 216.028 258.081 216.028C257.388 216.028 256.79 216.184 256.287 216.496C255.785 216.808 255.395 217.267 255.117 217.874C254.857 218.481 254.727 219.217 254.727 220.084L253.843 219.044ZM273.47 219.33C274.804 219.573 275.81 220.023 276.486 220.682C277.179 221.323 277.526 222.173 277.526 223.23C277.526 224.513 277.014 225.527 275.992 226.272C274.986 227.017 273.608 227.39 271.858 227.39C270.592 227.39 269.5 227.199 268.582 226.818C267.663 226.419 266.952 225.865 266.45 225.154C265.947 224.426 265.687 223.568 265.67 222.58H268.764C268.85 223.291 269.145 223.845 269.648 224.244C270.168 224.625 270.878 224.816 271.78 224.816C272.542 224.816 273.132 224.686 273.548 224.426C273.981 224.149 274.198 223.75 274.198 223.23C274.198 222.831 274.05 222.519 273.756 222.294C273.461 222.051 272.984 221.869 272.326 221.748L270.298 221.41C268.876 221.15 267.802 220.699 267.074 220.058C266.346 219.417 265.982 218.585 265.982 217.562C265.982 216.73 266.19 216.011 266.606 215.404C267.039 214.78 267.654 214.303 268.452 213.974C269.266 213.627 270.228 213.454 271.338 213.454C273.036 213.454 274.397 213.853 275.42 214.65C276.46 215.447 277.023 216.557 277.11 217.978H273.938C273.868 217.354 273.608 216.86 273.158 216.496C272.707 216.132 272.092 215.95 271.312 215.95C270.618 215.95 270.09 216.089 269.726 216.366C269.362 216.626 269.18 216.981 269.18 217.432C269.18 217.813 269.336 218.117 269.648 218.342C269.977 218.567 270.514 218.758 271.26 218.914L273.47 219.33ZM285.664 221.618C285.49 221.323 285.291 221.159 285.066 221.124C284.858 221.089 284.632 221.193 284.39 221.436L282.414 223.49V227H279.268V208.8H282.414V219.694L287.9 213.87H291.748L288.056 217.77C287.83 217.995 287.7 218.229 287.666 218.472C287.631 218.697 287.692 218.94 287.848 219.2L292.138 227H288.524L285.664 221.618ZM298.861 227.416C297.509 227.416 296.321 227.13 295.299 226.558C294.276 225.969 293.487 225.154 292.933 224.114C292.378 223.057 292.101 221.826 292.101 220.422C292.101 219.035 292.378 217.813 292.933 216.756C293.487 215.699 294.267 214.884 295.273 214.312C296.295 213.723 297.491 213.428 298.861 213.428C300.334 213.428 301.582 213.766 302.605 214.442C303.627 215.118 304.355 216.054 304.789 217.25C305.239 218.429 305.352 219.781 305.127 221.306H294.467L295.429 220.318C295.342 221.705 295.602 222.788 296.209 223.568C296.833 224.348 297.717 224.738 298.861 224.738C299.641 224.738 300.282 224.573 300.785 224.244C301.287 223.897 301.608 223.49 301.747 223.022H305.049C304.875 223.871 304.511 224.634 303.957 225.31C303.402 225.969 302.691 226.489 301.825 226.87C300.958 227.234 299.97 227.416 298.861 227.416ZM294.545 219.044H302.839L301.799 219.98C301.955 219.217 301.929 218.541 301.721 217.952C301.53 217.345 301.175 216.877 300.655 216.548C300.152 216.201 299.528 216.028 298.783 216.028C298.089 216.028 297.491 216.184 296.989 216.496C296.486 216.808 296.096 217.267 295.819 217.874C295.559 218.481 295.429 219.217 295.429 220.084L294.545 219.044ZM306.967 217.172C306.967 216.097 307.253 215.274 307.825 214.702C308.414 214.13 309.264 213.844 310.373 213.844H314.637V216.652H310.295V227H306.967V217.172ZM314.515 227.962C314.602 227.754 314.628 227.572 314.593 227.416C314.576 227.26 314.481 227.13 314.307 227.026C314.047 226.87 313.839 226.653 313.683 226.376C313.527 226.099 313.449 225.787 313.449 225.44C313.449 224.903 313.631 224.452 313.995 224.088C314.377 223.724 314.862 223.542 315.451 223.542C316.058 223.542 316.552 223.741 316.933 224.14C317.315 224.539 317.505 225.059 317.505 225.7C317.505 225.96 317.462 226.255 317.375 226.584C317.289 226.896 317.15 227.277 316.959 227.728L315.295 231.628H312.877L314.515 227.962ZM35.626 243.6H33.208L33.182 240.844H34.846C35.0887 240.844 35.2707 240.783 35.392 240.662C35.5133 240.541 35.5913 240.359 35.626 240.116V239.674C35.7473 238.565 36.1893 237.646 36.952 236.918C37.7147 236.173 38.824 235.8 40.28 235.8H41.71V238.556H39.604C39.3267 238.556 39.1187 238.617 38.98 238.738C38.8587 238.859 38.798 239.059 38.798 239.336V240.844H41.476V243.6H38.85V254H35.626V243.6ZM46.8105 254.416C45.3891 254.416 44.2625 254.035 43.4305 253.272C42.5985 252.509 42.1825 251.521 42.1825 250.308C42.1825 249.147 42.5725 248.219 43.3525 247.526C44.1498 246.815 45.2938 246.399 46.7845 246.278L49.8525 246.07C50.1818 246.035 50.4245 245.94 50.5805 245.784C50.7538 245.611 50.8405 245.351 50.8405 245.004C50.8405 244.363 50.6151 243.886 50.1645 243.574C49.7311 243.245 49.1331 243.08 48.3705 243.08C47.5558 243.08 46.9231 243.262 46.4725 243.626C46.0391 243.973 45.7705 244.458 45.6665 245.082H42.4685C42.6245 243.591 43.2051 242.447 44.2105 241.65C45.2158 240.835 46.6025 240.428 48.3705 240.428C50.2251 240.428 51.6465 240.87 52.6345 241.754C53.6225 242.638 54.1165 243.955 54.1165 245.706V251.192H55.1825V254H53.8565C53.0245 254 52.3918 253.775 51.9585 253.324C51.5425 252.856 51.3345 252.18 51.3345 251.296V250.022L51.7765 250.204C51.5511 251.608 50.9878 252.665 50.0865 253.376C49.2025 254.069 48.1105 254.416 46.8105 254.416ZM47.4865 251.764C48.1278 251.764 48.6998 251.634 49.2025 251.374C49.7225 251.097 50.1298 250.724 50.4245 250.256C50.7191 249.771 50.8665 249.233 50.8665 248.644V248.124L47.4865 248.384C46.8105 248.436 46.3078 248.618 45.9785 248.93C45.6665 249.225 45.5105 249.623 45.5105 250.126C45.5105 250.646 45.6838 251.053 46.0305 251.348C46.3771 251.625 46.8625 251.764 47.4865 251.764ZM62.877 259.2C61.5944 259.2 60.4937 258.975 59.575 258.524C58.6564 258.073 57.9457 257.467 57.443 256.704C56.9577 255.959 56.663 255.101 56.559 254.13H59.783C59.9217 254.893 60.251 255.491 60.771 255.924C61.291 256.357 61.993 256.574 62.877 256.574C63.8997 256.574 64.697 256.288 65.269 255.716C65.8584 255.144 66.153 254.347 66.153 253.324V250.282L66.413 248.774V240.87H69.247V252.388C69.247 254.52 68.7097 256.184 67.635 257.38C66.5604 258.593 64.9744 259.2 62.877 259.2ZM62.019 253.428C60.875 253.428 59.8697 253.168 59.003 252.648C58.1364 252.111 57.4604 251.357 56.975 250.386C56.4897 249.398 56.247 248.245 56.247 246.928C56.247 245.628 56.4897 244.493 56.975 243.522C57.4604 242.534 58.1364 241.78 59.003 241.26C59.8697 240.723 60.875 240.454 62.019 240.454C63.1457 240.454 64.125 240.714 64.957 241.234C65.789 241.754 66.4304 242.508 66.881 243.496C67.3317 244.467 67.557 245.619 67.557 246.954C67.557 248.289 67.3317 249.441 66.881 250.412C66.4304 251.383 65.789 252.128 64.957 252.648C64.125 253.168 63.1457 253.428 62.019 253.428ZM62.773 250.802C63.449 250.802 64.047 250.646 64.567 250.334C65.087 250.005 65.4857 249.545 65.763 248.956C66.0577 248.367 66.205 247.691 66.205 246.928C66.205 246.183 66.0577 245.524 65.763 244.952C65.4857 244.363 65.087 243.912 64.567 243.6C64.047 243.271 63.449 243.106 62.773 243.106C62.097 243.106 61.5077 243.271 61.005 243.6C60.5024 243.912 60.1124 244.354 59.835 244.926C59.5577 245.498 59.419 246.174 59.419 246.954C59.419 248.098 59.7224 249.025 60.329 249.736C60.9357 250.447 61.7504 250.802 62.773 250.802ZM84.516 254.416C83.1293 254.416 81.916 254.13 80.876 253.558C79.836 252.969 79.03 252.154 78.458 251.114C77.9033 250.057 77.626 248.826 77.626 247.422C77.626 246.035 77.9033 244.813 78.458 243.756C79.03 242.699 79.836 241.884 80.876 241.312C81.916 240.723 83.1206 240.428 84.49 240.428C85.8766 240.428 87.0813 240.723 88.104 241.312C89.144 241.884 89.9413 242.699 90.496 243.756C91.068 244.796 91.354 246.018 91.354 247.422C91.354 248.809 91.068 250.031 90.496 251.088C89.9413 252.145 89.144 252.969 88.104 253.558C87.0813 254.13 85.8853 254.416 84.516 254.416ZM84.516 251.582C85.192 251.582 85.79 251.417 86.31 251.088C86.8473 250.741 87.2546 250.256 87.532 249.632C87.8266 248.991 87.974 248.254 87.974 247.422C87.974 246.157 87.6533 245.143 87.012 244.38C86.388 243.617 85.556 243.236 84.516 243.236C83.8053 243.236 83.19 243.409 82.67 243.756C82.15 244.103 81.7426 244.597 81.448 245.238C81.1706 245.862 81.032 246.59 81.032 247.422C81.032 248.687 81.344 249.701 81.968 250.464C82.6093 251.209 83.4586 251.582 84.516 251.582ZM99.2364 259.2C97.9538 259.2 96.8531 258.975 95.9344 258.524C95.0158 258.073 94.3051 257.467 93.8024 256.704C93.3171 255.959 93.0224 255.101 92.9184 254.13H96.1424C96.2811 254.893 96.6104 255.491 97.1304 255.924C97.6504 256.357 98.3524 256.574 99.2364 256.574C100.259 256.574 101.056 256.288 101.628 255.716C102.218 255.144 102.512 254.347 102.512 253.324V250.282L102.772 248.774V240.87H105.606V252.388C105.606 254.52 105.069 256.184 103.994 257.38C102.92 258.593 101.334 259.2 99.2364 259.2ZM98.3784 253.428C97.2344 253.428 96.2291 253.168 95.3624 252.648C94.4958 252.111 93.8198 251.357 93.3344 250.386C92.8491 249.398 92.6064 248.245 92.6064 246.928C92.6064 245.628 92.8491 244.493 93.3344 243.522C93.8198 242.534 94.4958 241.78 95.3624 241.26C96.2291 240.723 97.2344 240.454 98.3784 240.454C99.5051 240.454 100.484 240.714 101.316 241.234C102.148 241.754 102.79 242.508 103.24 243.496C103.691 244.467 103.916 245.619 103.916 246.954C103.916 248.289 103.691 249.441 103.24 250.412C102.79 251.383 102.148 252.128 101.316 252.648C100.484 253.168 99.5051 253.428 98.3784 253.428ZM99.1324 250.802C99.8084 250.802 100.406 250.646 100.926 250.334C101.446 250.005 101.845 249.545 102.122 248.956C102.417 248.367 102.564 247.691 102.564 246.928C102.564 246.183 102.417 245.524 102.122 244.952C101.845 244.363 101.446 243.912 100.926 243.6C100.406 243.271 99.8084 243.106 99.1324 243.106C98.4564 243.106 97.8671 243.271 97.3644 243.6C96.8618 243.912 96.4718 244.354 96.1944 244.926C95.9171 245.498 95.7784 246.174 95.7784 246.954C95.7784 248.098 96.0818 249.025 96.6884 249.736C97.2951 250.447 98.1098 250.802 99.1324 250.802ZM114.609 240.844H117.625V243.938L117.287 243.548C117.651 242.525 118.197 241.754 118.925 241.234C119.671 240.697 120.563 240.428 121.603 240.428C122.73 240.428 123.666 240.723 124.411 241.312C125.174 241.901 125.685 242.725 125.945 243.782L125.399 243.808C125.694 242.716 126.223 241.884 126.985 241.312C127.765 240.723 128.71 240.428 129.819 240.428C130.755 240.428 131.57 240.636 132.263 241.052C132.957 241.468 133.485 242.066 133.849 242.846C134.213 243.609 134.395 244.519 134.395 245.576V254H131.067V246.122C131.067 245.186 130.894 244.484 130.547 244.016C130.201 243.548 129.681 243.314 128.987 243.314C128.173 243.314 127.497 243.643 126.959 244.302C126.439 244.961 126.179 245.957 126.179 247.292V254H122.851V246.122C122.851 245.186 122.678 244.484 122.331 244.016C121.985 243.548 121.465 243.314 120.771 243.314C119.922 243.314 119.237 243.652 118.717 244.328C118.197 245.004 117.937 245.992 117.937 247.292V254H114.609V240.844ZM142.787 254.416C141.401 254.416 140.187 254.13 139.147 253.558C138.107 252.969 137.301 252.154 136.729 251.114C136.175 250.057 135.897 248.826 135.897 247.422C135.897 246.035 136.175 244.813 136.729 243.756C137.301 242.699 138.107 241.884 139.147 241.312C140.187 240.723 141.392 240.428 142.761 240.428C144.148 240.428 145.353 240.723 146.375 241.312C147.415 241.884 148.213 242.699 148.767 243.756C149.339 244.796 149.625 246.018 149.625 247.422C149.625 248.809 149.339 250.031 148.767 251.088C148.213 252.145 147.415 252.969 146.375 253.558C145.353 254.13 144.157 254.416 142.787 254.416ZM142.787 251.582C143.463 251.582 144.061 251.417 144.581 251.088C145.119 250.741 145.526 250.256 145.803 249.632C146.098 248.991 146.245 248.254 146.245 247.422C146.245 246.157 145.925 245.143 145.283 244.38C144.659 243.617 143.827 243.236 142.787 243.236C142.077 243.236 141.461 243.409 140.941 243.756C140.421 244.103 140.014 244.597 139.719 245.238C139.442 245.862 139.303 246.59 139.303 247.422C139.303 248.687 139.615 249.701 140.239 250.464C140.881 251.209 141.73 251.582 142.787 251.582ZM156.806 254.416C155.645 254.416 154.613 254.13 153.712 253.558C152.811 252.986 152.109 252.171 151.606 251.114C151.121 250.057 150.878 248.826 150.878 247.422C150.878 246.001 151.121 244.77 151.606 243.73C152.109 242.673 152.811 241.858 153.712 241.286C154.613 240.714 155.645 240.428 156.806 240.428C157.846 240.428 158.765 240.662 159.562 241.13C160.359 241.581 160.992 242.239 161.46 243.106L161.044 243.626V235.8H164.346V254H161.33V250.854L161.72 251.322C161.269 252.31 160.619 253.073 159.77 253.61C158.921 254.147 157.933 254.416 156.806 254.416ZM157.664 251.582C158.34 251.582 158.938 251.417 159.458 251.088C159.978 250.741 160.385 250.256 160.68 249.632C160.975 248.991 161.122 248.254 161.122 247.422C161.122 246.59 160.975 245.862 160.68 245.238C160.385 244.597 159.978 244.103 159.458 243.756C158.938 243.409 158.34 243.236 157.664 243.236C156.988 243.236 156.39 243.409 155.87 243.756C155.367 244.103 154.977 244.597 154.7 245.238C154.423 245.862 154.284 246.59 154.284 247.422C154.284 248.687 154.587 249.701 155.194 250.464C155.801 251.209 156.624 251.582 157.664 251.582ZM172.872 254.416C171.52 254.416 170.333 254.13 169.31 253.558C168.288 252.969 167.499 252.154 166.944 251.114C166.39 250.057 166.112 248.826 166.112 247.422C166.112 246.035 166.39 244.813 166.944 243.756C167.499 242.699 168.279 241.884 169.284 241.312C170.307 240.723 171.503 240.428 172.872 240.428C174.346 240.428 175.594 240.766 176.616 241.442C177.639 242.118 178.367 243.054 178.8 244.25C179.251 245.429 179.364 246.781 179.138 248.306H168.478L169.44 247.318C169.354 248.705 169.614 249.788 170.22 250.568C170.844 251.348 171.728 251.738 172.872 251.738C173.652 251.738 174.294 251.573 174.796 251.244C175.299 250.897 175.62 250.49 175.758 250.022H179.06C178.887 250.871 178.523 251.634 177.968 252.31C177.414 252.969 176.703 253.489 175.836 253.87C174.97 254.234 173.982 254.416 172.872 254.416ZM168.556 246.044H176.85L175.81 246.98C175.966 246.217 175.94 245.541 175.732 244.952C175.542 244.345 175.186 243.877 174.666 243.548C174.164 243.201 173.54 243.028 172.794 243.028C172.101 243.028 171.503 243.184 171 243.496C170.498 243.808 170.108 244.267 169.83 244.874C169.57 245.481 169.44 246.217 169.44 247.084L168.556 246.044ZM189.923 246.278C189.923 245.273 189.724 244.527 189.325 244.042C188.927 243.557 188.32 243.314 187.505 243.314C186.535 243.314 185.763 243.661 185.191 244.354C184.637 245.03 184.359 246.061 184.359 247.448V254H181.031V240.844H184.047V243.964L183.709 243.548C184.073 242.525 184.645 241.754 185.425 241.234C186.205 240.697 187.167 240.428 188.311 240.428C189.334 240.428 190.218 240.636 190.963 241.052C191.709 241.468 192.272 242.075 192.653 242.872C193.052 243.652 193.251 244.579 193.251 245.654V254H189.923V246.278ZM204.294 246.278C204.294 245.273 204.095 244.527 203.696 244.042C203.298 243.557 202.691 243.314 201.876 243.314C200.906 243.314 200.134 243.661 199.562 244.354C199.008 245.03 198.73 246.061 198.73 247.448V254H195.402V235.8H198.73V243.652L198.366 243.21C198.73 242.274 199.268 241.581 199.978 241.13C200.706 240.662 201.608 240.428 202.682 240.428C203.705 240.428 204.58 240.636 205.308 241.052C206.054 241.468 206.617 242.075 206.998 242.872C207.397 243.652 207.596 244.579 207.596 245.654V254H204.294V246.278ZM215.859 254.416C214.507 254.416 213.319 254.13 212.297 253.558C211.274 252.969 210.485 252.154 209.931 251.114C209.376 250.057 209.099 248.826 209.099 247.422C209.099 246.035 209.376 244.813 209.931 243.756C210.485 242.699 211.265 241.884 212.271 241.312C213.293 240.723 214.489 240.428 215.859 240.428C217.332 240.428 218.58 240.766 219.603 241.442C220.625 242.118 221.353 243.054 221.787 244.25C222.237 245.429 222.35 246.781 222.125 248.306H211.465L212.427 247.318C212.34 248.705 212.6 249.788 213.207 250.568C213.831 251.348 214.715 251.738 215.859 251.738C216.639 251.738 217.28 251.573 217.783 251.244C218.285 250.897 218.606 250.49 218.745 250.022H222.047C221.873 250.871 221.509 251.634 220.955 252.31C220.4 252.969 219.689 253.489 218.823 253.87C217.956 254.234 216.968 254.416 215.859 254.416ZM211.543 246.044H219.837L218.797 246.98C218.953 246.217 218.927 245.541 218.719 244.952C218.528 244.345 218.173 243.877 217.653 243.548C217.15 243.201 216.526 243.028 215.781 243.028C215.087 243.028 214.489 243.184 213.987 243.496C213.484 243.808 213.094 244.267 212.817 244.874C212.557 245.481 212.427 246.217 212.427 247.084L211.543 246.044ZM230.057 254C228.514 254 227.318 253.601 226.469 252.804C225.637 251.989 225.221 250.854 225.221 249.398V243.652H222.829V240.844H224.363C224.71 240.844 224.97 240.757 225.143 240.584C225.334 240.393 225.429 240.133 225.429 239.804V236.84H228.471V240.844H231.227V243.652H228.549V250.412C228.549 250.689 228.61 250.889 228.731 251.01C228.87 251.131 229.078 251.192 229.355 251.192H231.565V254H230.057Z" fill="#CDE5FF"/>
</g>
<defs>
<filter id="filter0_gf_1_8" x="-801.348" y="47.6525" width="1208.25" height="1192.75" filterUnits="userSpaceOnUse" color-interpolation-filters="sRGB">
<feFlood flood-opacity="0" result="BackgroundImageFix"/>
<feBlend mode="normal" in="SourceGraphic" in2="BackgroundImageFix" result="shape"/>
<feTurbulence type="fractalNoise" baseFrequency="1 1" numOctaves="3" seed="2530" result="displacementX" />
<feTurbulence type="fractalNoise" baseFrequency="1 1" numOctaves="3" seed="2531" result="displacementY" />
<feColorMatrix in="displacementX" type="matrix" values="0 0 0 1 0  0 0 0 0 0  0 0 0 0 0  0 0 0 0 1" result="displacementXRed" />
<feColorMatrix in="displacementY" type="matrix" values="0 0 0 0 0  0 0 0 1 0  0 0 0 0 0  0 0 0 0 1" />
<feComposite in="displacementXRed" operator="arithmetic" k1="0" k2="1" k3="1" k4="0"/>
<feDisplacementMap in="shape" scale="200" xChannelSelector="R" yChannelSelector="G" width="100%" height="100%" />
<feColorMatrix type="matrix" values="0 0 0 0 0  0 0 0 0 0  0 0 0 0 0  0 0 0 1 0" />
<feComponentTransfer result="sourceDisplacedAlpha">
<feFuncA type="gamma" exponent="0.2" />
</feComponentTransfer>
<feColorMatrix in="shape" type="matrix" values="0 0 0 0 0  0 0 0 0 0  0 0 0 0 0  0 0 0 1 0" />
<feComponentTransfer result="inputSourceAlpha">
<feFuncA type="gamma" exponent="0.2" />
</feComponentTransfer>
<feComposite in="sourceDisplacedAlpha" operator="arithmetic" k1="1" k2="0" k3="0" k4="0" result="displacementAlphasMultiplied"/>
<feComposite in="displacementAlphasMultiplied"  operator="arithmetic" k1="0" k2="0" k3="-0.5" k4="0.5" result="centeringAdjustment"/>
<feComposite in="displacementX" in2="displacementAlphasMultiplied" operator="arithmetic" k1="1" k2="0" k3="0" k4="0" />
<feComposite in="centeringAdjustment" operator="arithmetic" k1="0" k2="1" k3="1" k4="0" />
<feColorMatrix  type="matrix" values="0 0 0 1 0  0 0 0 0 0  0 0 0 0 0  0 0 0 0 1" result="displacementXFinal" />
<feComposite in="displacementY" in2="displacementAlphasMultiplied" operator="arithmetic" k1="1" k2="0" k3="0" k4="0" />
<feComposite in="centeringAdjustment" operator="arithmetic" k1="0" k2="1" k3="1" k4="0" />
<feColorMatrix  type="matrix" values="0 0 0 0 0  0 0 0 1 0  0 0 0 0 0  0 0 0 0 1" result="displacementYFinal" />
<feComposite in="displacementXFinal" in2="displacementYFinal" operator="arithmetic" k1="0" k2="1" k3="1" k4="0" />
<feComposite in2="displacementAlphasMultiplied" operator="in" result="displacementMap" />
<feFlood flood-color="rgb(127, 127, 127)" flood-opacity="1"/>
<feComposite in2="displacementAlphasMultiplied" operator="out" />
<feComposite in2="displacementMap" operator="over" result="displacementMapWithBg"/>
<feDisplacementMap in="shape" scale="200" xChannelSelector="R" yChannelSelector="G" width="100%" height="100%" result="displacedImage" />
<feColorMatrix in="shape" type="matrix" values="1 0 0 0 0  0 1 0 0 0  0 0 1 0 0  0 0 0 127 0" result="imageOpaque" />
<feDisplacementMap in="imageOpaque" in2="displacementMapWithBg" scale="200" xChannelSelector="R" yChannelSelector="G" width="100%" height="100%" result="displacedImageOpaque" />
<feColorMatrix in="displacedImage" type="matrix" values="0 0 0 1 0  0 0 0 0 0  0 0 0 0 0  0 0 0 127 0" result="displacedImageRed" />
<feColorMatrix in="shape" type="matrix" values="0 0 0 1 0  0 0 0 0 0  0 0 0 0 0  0 0 0 127 0" />
<feComposite in="displacedImageRed"  operator="atop" result="transparencyRedMap"/>
<feColorMatrix in="transparencyRedMap" type="matrix" values="0 0 0 0 0  0 0 0 0 0  0 0 0 0 0  1 0 0 0 0" result="transparencyAlphaMap" />
<feComposite in="displacedImageOpaque" in2="imageOpaque" operator="over" />
<feComposite in2="transparencyAlphaMap" operator="in" result="effect1_texture_1_8"/>
<feGaussianBlur stdDeviation="125" result="effect2_foregroundBlur_1_8"/>
</filter>
<clipPath id="clip0_1_8">
<rect width="360" height="505" fill="white"/>
</clipPath>
<clipPath id="clip1_1_8">
<path d="M33 138.518C33 136.023 35.0228 134 37.518 134H313.482C315.977 134 318 136.023 318 138.518V178.59C318 181.085 315.977 183.108 313.482 183.108H37.518C35.0228 183.108 33 181.085 33 178.59V138.518Z" fill="white"/>
</clipPath>
</defs>
</svg>
